<?xml version="1.0" encoding="UTF-8"?>
<svg xmlns="http://www.w3.org/2000/svg" xmlns:xlink="http://www.w3.org/1999/xlink" width="266px" height="150px" viewBox="0 0 145 82" version="1.1">
<g id="surface1">
<path style=" stroke:none;fill-rule:nonzero;fill:rgb(0%,12.156863%,27.058824%);fill-opacity:1;" d="M 24.230469 0.0117188 L 24.605469 0.0117188 C 25.734375 0.691406 24.378906 3.628906 24.304688 4.609375 C 24.152344 3.25 24.078125 1.820312 23.703125 0.613281 C 23.851562 0.464844 24.078125 0.238281 24.230469 0.0117188 "/>
<path style=" stroke:none;fill-rule:nonzero;fill:rgb(0%,12.156863%,27.058824%);fill-opacity:1;" d="M 22.722656 1.292969 C 23.101562 2.121094 23.027344 3.476562 23.101562 4.53125 C 22.722656 3.476562 21.671875 2.648438 21.820312 1.367188 C 21.898438 0.914062 22.5 1.140625 22.722656 1.292969 "/>
<path style=" stroke:none;fill-rule:nonzero;fill:rgb(0%,12.156863%,27.058824%);fill-opacity:1;" d="M 25.660156 4.609375 C 25.660156 3.628906 25.660156 1.894531 26.109375 1.140625 C 26.5625 1.066406 26.789062 1.066406 27.011719 1.367188 C 26.863281 2.875 25.960938 3.402344 25.660156 4.609375 "/>
<path style=" stroke:none;fill-rule:nonzero;fill:rgb(0%,12.156863%,27.058824%);fill-opacity:1;" d="M 22.199219 5.210938 C 21.519531 4.230469 20.316406 3.777344 20.089844 2.273438 C 21.519531 1.519531 21.746094 4.082031 22.199219 5.210938 "/>
<path style=" stroke:none;fill-rule:nonzero;fill:rgb(0%,12.156863%,27.058824%);fill-opacity:1;" d="M 28.519531 2.574219 C 28.292969 3.855469 27.390625 4.382812 26.863281 5.285156 C 26.9375 4.382812 27.390625 1.519531 28.519531 2.574219 "/>
<path style=" stroke:none;fill-rule:nonzero;fill:rgb(0%,12.156863%,27.058824%);fill-opacity:1;" d="M 30.023438 3.628906 C 30.175781 3.703125 30.023438 4.082031 30.25 4.003906 C 29.796875 4.984375 28.746094 5.4375 27.992188 6.113281 C 28.292969 5.285156 28.667969 3.703125 30.023438 3.628906 "/>
<path style=" stroke:none;fill-rule:nonzero;fill:rgb(0%,12.156863%,27.058824%);fill-opacity:1;" d="M 20.542969 7.167969 C 19.941406 7.246094 19.414062 6.792969 18.660156 6.492188 C 18.058594 6.265625 16.703125 6.113281 16.78125 5.285156 C 16.855469 4.984375 17.230469 4.757812 17.53125 4.757812 C 18.660156 4.683594 19.714844 6.71875 20.542969 7.167969 "/>
<path style=" stroke:none;fill-rule:nonzero;fill:rgb(0%,12.156863%,27.058824%);fill-opacity:1;" d="M 31.753906 5.210938 C 31.226562 6.566406 29.570312 6.640625 28.367188 7.246094 C 29.347656 6.566406 30.324219 4.304688 31.753906 5.210938 "/>
<path style=" stroke:none;fill-rule:nonzero;fill:rgb(0%,12.156863%,27.058824%);fill-opacity:1;" d="M 24.304688 6.039062 C 23.851562 8.527344 25.507812 9.503906 24.980469 11.613281 C 24.304688 10.183594 21.746094 7.09375 24.304688 6.039062 "/>
<path style=" stroke:none;fill-rule:nonzero;fill:rgb(0%,12.156863%,27.058824%);fill-opacity:1;" d="M 25.734375 6.191406 C 25.808594 6.191406 25.886719 6.191406 25.886719 6.265625 C 25.28125 8.601562 27.992188 10.785156 25.734375 11.992188 C 25.808594 10.9375 25.734375 9.730469 25.359375 8.75 C 25.132812 8.75 25.058594 8.902344 24.980469 9.054688 C 24.230469 7.921875 25.058594 6.640625 25.734375 6.191406 "/>
<path style=" stroke:none;fill-rule:nonzero;fill:rgb(0%,12.156863%,27.058824%);fill-opacity:1;" d="M 19.863281 8.300781 C 19.113281 8.375 18.359375 8.074219 17.382812 7.847656 C 16.703125 7.773438 15.273438 7.773438 15.199219 7.019531 C 15.125 6.414062 15.726562 6.265625 16.179688 6.339844 C 17.230469 6.414062 18.738281 8 19.863281 8.300781 "/>
<path style=" stroke:none;fill-rule:nonzero;fill:rgb(0%,12.156863%,27.058824%);fill-opacity:1;" d="M 33.410156 6.792969 C 32.582031 7.921875 30.550781 7.773438 29.121094 8.300781 C 29.496094 8 30.097656 7.695312 30.699219 7.320312 C 31.527344 6.867188 32.507812 5.8125 33.410156 6.792969 "/>
<path style=" stroke:none;fill-rule:nonzero;fill:rgb(0%,12.156863%,27.058824%);fill-opacity:1;" d="M 25.28125 82.214844 L 24.605469 82.214844 C 23.628906 81.761719 22.949219 81.386719 22.949219 80.253906 C 22.875 78.898438 24.003906 78.671875 23.703125 77.089844 C 21.671875 77.015625 19.414062 77.242188 17.53125 77.015625 L 17.53125 75.132812 C 16.179688 75.054688 14.671875 75.132812 13.394531 74.980469 C 14.523438 72.644531 15.800781 70.460938 16.855469 68.125 C 10.910156 66.164062 6.09375 62.097656 3.234375 56.519531 C 2.257812 54.636719 1.128906 51.925781 1.054688 49.289062 C 2.183594 47.933594 3.613281 46.878906 4.816406 45.671875 L 4.816406 42.734375 L 0.226562 42.734375 C 2.183594 39.71875 4.289062 36.929688 6.246094 33.992188 C 4.964844 33.917969 3.535156 34.144531 2.40625 33.917969 C 2.257812 30.226562 2.257812 25.929688 2.40625 22.238281 L 5.644531 22.238281 L 5.644531 19.148438 C 11.0625 19 16.78125 19.074219 22.347656 19.074219 C 22.648438 17.191406 21.519531 16.4375 21.597656 15.003906 C 21.144531 14.628906 20.542969 13.421875 21.371094 12.972656 C 19.789062 11.238281 21.144531 7.621094 22.648438 7.246094 C 22.199219 9.503906 24.457031 10.410156 23.777344 12.59375 C 23.402344 11.164062 22.421875 10.484375 21.671875 9.503906 C 21.371094 10.710938 21.070312 13.421875 22.574219 13.121094 C 22.574219 12.519531 21.972656 12.140625 22.273438 11.539062 C 22.800781 11.613281 22.800781 12.292969 23.027344 12.667969 C 23.25 13.046875 23.777344 13.195312 23.777344 13.722656 C 23.703125 14.027344 23.027344 13.574219 23.25 14.101562 C 23.328125 14.703125 24.152344 14.402344 24.378906 14.703125 C 24.152344 15.230469 22.875 14.703125 22.5 15.15625 C 22.273438 15.457031 22.421875 16.058594 22.800781 15.984375 C 23.328125 15.984375 22.5 15.230469 22.949219 15.15625 C 23.703125 14.929688 23.476562 15.683594 23.703125 16.058594 C 24.003906 16.285156 24.53125 16.285156 24.605469 16.738281 C 24.230469 16.964844 23.476562 16.738281 22.949219 16.8125 C 23.101562 17.492188 22.800781 18.921875 23.402344 19 C 24.230469 18.472656 22.800781 17.71875 23.328125 17.265625 C 24.457031 16.964844 23.703125 18.773438 24.304688 19 L 24.605469 19 C 25.058594 18.246094 24.078125 17.867188 24.378906 17.339844 C 25.207031 16.890625 25.058594 18.246094 25.058594 19 L 26.1875 19 C 26.1875 18.320312 26.1875 17.566406 26.261719 16.964844 C 26.261719 16.585938 25.582031 16.890625 25.660156 16.363281 C 25.960938 15.835938 26.710938 15.910156 26.636719 15.003906 C 26.261719 14.703125 25.058594 15.230469 24.832031 14.628906 C 25.507812 14.027344 27.390625 14.78125 27.390625 13.5 C 26.261719 13.347656 24.832031 14.175781 24.003906 13.5 C 25.433594 13.195312 26.789062 13.121094 27.011719 11.613281 C 27.464844 12.140625 26.5625 12.820312 27.011719 13.121094 C 29.121094 11.390625 25.582031 8.902344 26.9375 6.640625 C 27.011719 8.148438 28.292969 9.128906 28.367188 10.558594 C 28.441406 11.613281 27.839844 12.519531 28.066406 13.800781 C 26.863281 15.003906 26.5625 16.890625 26.5625 19.074219 L 42.964844 19.074219 L 42.964844 22.238281 C 44.320312 22.164062 45.375 22.390625 46.726562 22.3125 C 46.652344 26.230469 46.804688 30.300781 46.726562 33.992188 C 45.375 33.917969 44.167969 34.144531 42.816406 34.066406 C 44.695312 37.007812 47.027344 39.871094 48.683594 42.734375 L 44.167969 42.734375 L 44.167969 45.445312 C 44.847656 46.199219 45.597656 46.800781 46.503906 47.554688 C 47.179688 48.15625 48.535156 48.835938 48.683594 49.890625 C 48.835938 51.246094 47.707031 53.355469 47.40625 54.335938 C 44.921875 61.34375 39.429688 65.714844 33.257812 68.125 C 34.386719 70.535156 35.667969 72.796875 36.796875 75.207031 C 35.367188 75.28125 33.710938 75.132812 32.429688 75.28125 L 32.429688 77.167969 L 26.035156 77.167969 C 25.660156 78.371094 26.789062 78.898438 26.9375 79.726562 C 27.164062 81.160156 26.335938 81.6875 25.28125 82.214844 M 6.472656 19.675781 C 6.394531 19.753906 6.320312 19.753906 6.320312 19.976562 L 6.320312 22.992188 L 3.011719 22.992188 L 3.011719 33.316406 C 4.589844 33.316406 6.09375 33.316406 7.523438 33.464844 C 6.472656 34.898438 5.492188 36.402344 4.441406 37.835938 C 3.6875 38.816406 2.933594 40.171875 2.183594 41.226562 C 1.957031 41.527344 1.429688 41.828125 1.582031 42.207031 L 5.34375 42.207031 L 5.34375 45.21875 L 6.472656 45.21875 L 6.472656 41.226562 C 5.417969 41.226562 4.515625 41.074219 3.386719 41.152344 C 5.117188 38.589844 7.074219 35.875 8.804688 33.390625 C 9.03125 33.089844 9.40625 32.789062 9.40625 32.335938 C 7.601562 32.261719 5.644531 32.484375 3.988281 32.261719 C 4.0625 29.546875 3.914062 26.683594 4.0625 24.121094 L 7.375 24.121094 C 7.449219 23.066406 7.300781 21.785156 7.449219 20.882812 C 18.660156 20.957031 30.097656 20.730469 41.234375 20.957031 L 41.234375 24.121094 C 42.363281 24.199219 43.71875 23.972656 44.695312 24.199219 C 44.621094 26.835938 44.773438 29.699219 44.621094 32.261719 C 43.117188 32.484375 41.234375 32.261719 39.503906 32.335938 C 41.234375 35.199219 43.792969 38.289062 45.449219 41.152344 C 44.320312 41.074219 43.417969 41.300781 42.289062 41.226562 L 42.289062 45.21875 L 43.417969 45.21875 L 43.417969 42.207031 C 44.621094 42.054688 46.050781 42.128906 47.328125 42.128906 C 45.75 39.265625 43.117188 36.253906 41.460938 33.464844 C 42.964844 33.464844 44.320312 33.316406 45.898438 33.390625 C 45.824219 29.699219 46.125 26.609375 45.898438 23.066406 L 42.214844 23.066406 L 42.214844 19.828125 L 6.472656 19.828125 Z M 8.050781 21.410156 L 8.050781 24.800781 L 4.742188 24.800781 L 4.742188 31.582031 C 6.472656 31.808594 8.652344 31.507812 10.382812 31.730469 C 10.308594 35.800781 10.460938 40.171875 10.308594 44.089844 L 8.050781 44.089844 L 8.050781 42.128906 C 8.503906 42.207031 9.253906 41.902344 9.253906 42.429688 C 9.332031 43.035156 8.425781 42.507812 8.730469 43.335938 C 8.730469 43.710938 9.40625 43.410156 9.707031 43.488281 L 9.707031 41.226562 L 7.300781 41.226562 L 7.300781 45.21875 L 11.511719 45.21875 L 11.511719 35.574219 C 14.671875 33.390625 19.339844 31.808594 24.457031 31.808594 C 29.648438 31.808594 34.3125 33.316406 37.472656 35.574219 L 37.472656 45.144531 L 41.761719 45.144531 L 41.761719 41.152344 L 39.355469 41.152344 L 39.355469 43.335938 C 39.65625 43.183594 40.484375 43.5625 40.40625 43.035156 C 40.632812 42.355469 39.578125 43.035156 39.804688 42.207031 C 39.878906 41.902344 40.785156 41.980469 40.933594 42.128906 C 40.859375 42.734375 41.007812 43.5625 40.859375 44.015625 C 40.105469 43.9375 39.203125 44.089844 38.601562 43.9375 C 38.675781 39.792969 38.527344 35.5 38.675781 31.507812 L 44.019531 31.507812 L 44.019531 24.648438 L 40.632812 24.648438 L 40.632812 21.410156 Z M 36.570312 41.679688 C 36.644531 41.902344 36.945312 44.164062 36.871094 42.882812 L 36.871094 35.800781 C 34.238281 34.445312 31.453125 32.863281 27.992188 32.710938 C 32.207031 34.066406 35.289062 37.234375 36.570312 41.679688 M 12.113281 35.875 C 12.191406 38.136719 12.039062 40.699219 12.191406 42.882812 C 13.167969 37.535156 16.328125 34.519531 20.617188 32.789062 C 17.230469 33.164062 14.597656 34.445312 12.113281 35.875 M 19.113281 34.066406 C 16.402344 35.5 14.449219 37.761719 13.320312 40.699219 C 11.664062 45.144531 13.019531 49.664062 14.597656 52 C 16.628906 55.015625 20.390625 57.351562 24.53125 57.273438 C 29.496094 57.273438 33.785156 53.882812 35.589844 49.664062 C 37.246094 45.746094 36.042969 40.320312 34.160156 37.761719 C 32.429688 35.347656 28.820312 32.410156 23.777344 32.789062 C 21.898438 33.011719 20.46875 33.390625 19.113281 34.066406 M 39.355469 40.472656 L 44.46875 40.472656 C 42.964844 38.210938 41.007812 35.652344 39.355469 33.238281 Z M 7.074219 37.007812 C 6.695312 37.535156 6.320312 38.136719 5.871094 38.738281 C 5.492188 39.265625 4.816406 39.871094 4.890625 40.398438 L 9.707031 40.398438 C 9.632812 38.0625 9.78125 35.425781 9.632812 33.238281 C 8.804688 34.59375 7.902344 35.800781 7.074219 37.007812 M 10.609375 45.746094 L 5.492188 45.746094 C 4.136719 47.027344 2.40625 48.234375 1.429688 49.664062 C 2.40625 50.117188 3.011719 48.910156 3.761719 48.234375 C 4.441406 47.628906 5.417969 46.5 6.171875 46.273438 C 7.375 45.972656 9.40625 46.273438 10.609375 46.273438 C 10.984375 46.273438 11.664062 46.5 11.890625 46.046875 C 11.738281 45.519531 10.984375 45.746094 10.609375 45.746094 M 45.824219 47.628906 C 45.148438 47.101562 44.167969 45.972656 43.417969 45.746094 C 41.386719 45.21875 39.128906 46.046875 36.871094 45.820312 L 36.871094 46.046875 C 38.601562 46.425781 41.007812 46.125 42.890625 46.199219 C 44.09375 47.027344 45.449219 48.308594 46.578125 49.289062 C 46.878906 49.589844 47.480469 50.269531 47.855469 49.589844 C 47.554688 48.910156 46.726562 48.308594 45.824219 47.628906 M 10.835938 47.027344 C 9.480469 47.027344 7.375 46.726562 6.171875 47.027344 C 5.34375 47.253906 4.816406 48.15625 4.136719 48.761719 C 3.460938 49.363281 2.558594 49.890625 2.484375 50.492188 C 2.40625 51.246094 2.933594 52.527344 3.3125 53.355469 C 4.289062 55.617188 5.417969 57.953125 6.921875 59.835938 C 10.082031 63.679688 14.523438 66.164062 19.414062 67.671875 C 18.433594 69.632812 17.382812 71.515625 16.402344 73.625 C 17.457031 73.699219 18.660156 73.472656 19.5625 73.699219 L 19.5625 75.585938 L 30.476562 75.585938 L 30.476562 73.625 L 33.710938 73.625 C 32.882812 71.441406 31.605469 69.632812 30.699219 67.445312 C 39.355469 65.261719 44.921875 59.6875 47.253906 50.492188 C 46.652344 50.042969 45.976562 49.363281 45.148438 48.761719 C 44.46875 48.234375 43.566406 47.253906 42.890625 47.101562 C 41.535156 46.800781 39.355469 47.101562 38 47.101562 C 37.625 47.101562 36.71875 46.878906 36.796875 47.628906 C 38.527344 48.15625 40.785156 47.253906 42.589844 47.707031 C 43.34375 47.855469 43.945312 48.683594 44.546875 49.210938 C 45.222656 49.738281 46.277344 50.269531 46.351562 50.945312 C 46.425781 51.625 45.898438 52.90625 45.523438 53.660156 C 45.148438 54.5625 44.773438 55.464844 44.394531 56.144531 C 41.234375 61.796875 35.667969 65.414062 29.496094 67.296875 C 30.398438 69.105469 31.378906 70.761719 32.128906 72.644531 C 31.078125 72.570312 30.324219 72.796875 29.347656 72.722656 L 29.347656 74.605469 C 26.488281 74.527344 23.402344 74.753906 20.617188 74.527344 L 20.617188 72.796875 C 19.640625 72.796875 18.660156 72.796875 17.832031 72.722656 C 18.585938 70.761719 19.789062 69.332031 20.46875 67.371094 C 11.890625 64.660156 5.644531 59.761719 3.234375 50.492188 C 3.6875 49.964844 4.289062 49.515625 4.890625 48.988281 C 5.417969 48.535156 6.09375 47.707031 6.773438 47.554688 C 7.902344 47.253906 9.78125 47.554688 10.984375 47.554688 C 11.285156 47.554688 12.039062 47.855469 12.113281 47.179688 C 11.890625 46.726562 11.210938 47.027344 10.835938 47.027344 M 6.921875 48.234375 C 6.394531 48.382812 4.136719 50.269531 3.988281 50.644531 C 3.914062 51.019531 4.289062 52 4.441406 52.527344 C 4.664062 53.128906 4.964844 53.734375 5.191406 54.1875 C 8.203125 60.890625 14.222656 65.035156 21.371094 66.84375 C 20.390625 68.5 19.5625 70.308594 18.738281 72.117188 L 21.070312 72.117188 L 21.070312 74 L 28.59375 74 C 28.59375 73.324219 28.59375 72.644531 28.746094 72.117188 C 29.496094 72.042969 30.476562 72.195312 31.078125 72.042969 C 30.175781 70.234375 29.269531 68.578125 28.441406 66.769531 C 37.019531 64.582031 43.117188 59.761719 45.597656 50.871094 C 44.46875 50.417969 43.644531 48.609375 42.214844 48.308594 C 40.40625 47.933594 38.527344 48.535156 36.570312 48.382812 C 34.914062 53.582031 31.300781 57.5 25.433594 57.953125 C 18.738281 58.40625 13.921875 54.109375 12.414062 48.382812 C 10.761719 48.460938 8.652344 47.855469 6.921875 48.234375 M 32.429688 69.859375 C 33.410156 71.589844 34.3125 73.777344 35.742188 74.527344 C 35.289062 73.324219 34.464844 71.96875 33.710938 70.6875 C 33.109375 69.554688 32.808594 68.199219 31.605469 67.972656 C 31.828125 68.5 32.054688 69.253906 32.429688 69.859375 M 16.253906 71.0625 C 15.5 72.042969 14.898438 73.472656 14.523438 74.304688 C 16.480469 72.945312 17.308594 70.007812 18.285156 67.972656 C 16.929688 68.351562 17.082031 69.859375 16.253906 71.0625 M 18.058594 74.679688 C 18.132812 75.207031 17.984375 75.886719 18.132812 76.261719 C 18.285156 75.960938 18.738281 75.886719 18.960938 75.660156 C 18.886719 75.132812 19.039062 74.453125 18.886719 74.078125 C 18.585938 74.304688 18.285156 74.453125 18.058594 74.679688 M 30.925781 75.660156 C 31.152344 75.886719 31.605469 75.960938 31.828125 76.1875 L 31.828125 74.832031 C 31.527344 74.605469 31.300781 74.378906 30.925781 74.226562 Z M 24.53125 78.144531 C 24.679688 77.996094 25.359375 77.996094 25.507812 78.144531 L 25.507812 77.089844 L 24.457031 77.089844 C 24.457031 77.390625 24.304688 77.996094 24.53125 78.144531 M 25.433594 81.460938 C 26.710938 81.085938 26.488281 78.296875 24.605469 78.898438 C 23.027344 79.351562 23.777344 81.835938 25.433594 81.460938 "/>
<path style=" stroke:none;fill-rule:nonzero;fill:rgb(0%,12.156863%,27.058824%);fill-opacity:1;" d="M 19.488281 9.730469 C 17.757812 9.503906 14.671875 9.957031 13.394531 8.976562 C 13.320312 8.527344 13.695312 8.074219 13.996094 8.074219 C 15.5 8.222656 17.984375 9.355469 19.488281 9.730469 "/>
<path style=" stroke:none;fill-rule:nonzero;fill:rgb(0%,12.156863%,27.058824%);fill-opacity:1;" d="M 18.960938 11.164062 C 17.832031 11.390625 16.402344 11.390625 15.125 11.539062 C 13.84375 11.613281 12.414062 12.066406 11.589844 11.3125 C 11.4375 11.011719 11.664062 10.484375 11.964844 10.332031 C 14.371094 10.484375 16.628906 10.863281 18.960938 11.164062 "/>
<path style=" stroke:none;fill-rule:nonzero;fill:rgb(0%,12.156863%,27.058824%);fill-opacity:1;" d="M 29.496094 11.238281 C 31.378906 11.011719 34.011719 10.558594 35.742188 10.410156 C 36.269531 10.410156 37.171875 10.183594 36.945312 11.238281 C 36.71875 12.21875 34.386719 11.539062 33.410156 11.464844 C 31.90625 11.390625 30.851562 11.3125 29.496094 11.238281 "/>
<path style=" stroke:none;fill-rule:nonzero;fill:rgb(0%,12.156863%,27.058824%);fill-opacity:1;" d="M 19.113281 12.746094 C 16.78125 13.195312 14.144531 13.800781 11.589844 14.328125 C 10.761719 14.476562 9.480469 14.703125 9.40625 13.875 C 9.332031 13.273438 10.160156 13.046875 10.609375 12.972656 C 13.09375 12.667969 16.703125 13.046875 19.113281 12.746094 "/>
<path style=" stroke:none;fill-rule:nonzero;fill:rgb(0%,12.156863%,27.058824%);fill-opacity:1;" d="M 29.421875 12.820312 C 29.421875 12.746094 29.496094 12.746094 29.570312 12.746094 C 31.679688 12.894531 34.464844 12.894531 36.644531 12.972656 C 37.472656 12.972656 38.675781 12.667969 39.054688 13.574219 C 38.976562 14.78125 37.699219 14.402344 36.945312 14.253906 C 34.613281 13.875 31.828125 13.195312 29.421875 12.820312 "/>
<path style=" stroke:none;fill-rule:nonzero;fill:rgb(0%,12.156863%,27.058824%);fill-opacity:1;" d="M 29.496094 14.253906 C 31.453125 14.476562 33.558594 15.082031 35.667969 15.609375 C 37.699219 16.136719 39.957031 16.285156 41.609375 17.265625 C 41.535156 19 39.578125 17.945312 38.902344 17.71875 C 35.894531 16.585938 32.582031 15.230469 29.496094 14.253906 "/>
<path style=" stroke:none;fill-rule:nonzero;fill:rgb(0%,12.156863%,27.058824%);fill-opacity:1;" d="M 25.808594 17.492188 C 25.960938 17.792969 25.886719 18.320312 25.886719 18.699219 L 25.660156 18.699219 C 25.433594 18.472656 25.359375 18.019531 25.359375 17.566406 C 25.433594 17.492188 25.582031 17.492188 25.808594 17.492188 "/>
<path style=" stroke:none;fill-rule:nonzero;fill:rgb(0%,12.156863%,27.058824%);fill-opacity:1;" d="M 10.234375 22.164062 C 9.78125 24.121094 9.179688 26.082031 8.730469 28.039062 C 9.105469 28.039062 9.253906 27.8125 9.707031 27.890625 L 9.707031 28.871094 C 11.890625 30.527344 10.835938 24.199219 11.0625 22.164062 L 11.890625 22.164062 C 11.589844 25.027344 12.867188 29.699219 10.460938 30.300781 C 9.855469 29.925781 8.953125 29.925781 8.878906 29.09375 C 8.503906 29.246094 7.902344 29.246094 7.601562 29.472656 C 7.902344 27.136719 8.878906 24.648438 9.40625 22.238281 Z M 10.234375 22.164062 "/>
<path style=" stroke:none;fill-rule:nonzero;fill:rgb(0%,12.156863%,27.058824%);fill-opacity:1;" d="M 13.167969 22.164062 C 13.996094 22.992188 14.144531 24.574219 14.898438 25.480469 C 15.351562 24.046875 14.371094 23.519531 14.523438 22.238281 C 14.671875 22.089844 15.125 22.164062 15.425781 22.164062 C 15.5 22.691406 15.5 23.292969 15.800781 23.59375 L 15.800781 27.738281 C 15.5 27.8125 15.351562 27.964844 14.972656 27.890625 C 14.371094 26.835938 13.996094 25.628906 13.46875 24.5 C 13.320312 25.101562 13.46875 26.15625 13.394531 26.910156 C 13.46875 27.136719 13.769531 27.0625 13.84375 27.136719 L 13.84375 28.265625 C 13.542969 28.417969 13.320312 28.644531 12.867188 28.71875 C 13.019531 27.964844 12.714844 27.664062 12.492188 27.285156 C 12.566406 25.554688 12.414062 23.671875 12.566406 22.089844 Z M 13.167969 22.164062 "/>
<path style=" stroke:none;fill-rule:nonzero;fill:rgb(0%,12.156863%,27.058824%);fill-opacity:1;" d="M 18.585938 22.164062 C 18.8125 23.367188 17.984375 25.855469 19.261719 25.929688 C 19.488281 24.875 19.1875 23.21875 19.414062 22.164062 L 20.242188 22.164062 C 20.316406 23.746094 20.691406 26.457031 19.488281 26.910156 C 18.585938 27.0625 18.210938 26.609375 17.832031 26.082031 L 17.832031 22.089844 Z M 18.585938 22.164062 "/>
<path style=" stroke:none;fill-rule:nonzero;fill:rgb(0%,12.156863%,27.058824%);fill-opacity:1;" d="M 25.507812 22.617188 C 25.660156 24.347656 24.980469 25.402344 25.660156 26.535156 L 24.757812 26.535156 C 24.605469 26.15625 24.605469 25.628906 24.378906 25.328125 C 23.929688 25.328125 24.230469 26.15625 24.152344 26.535156 L 23.25 26.535156 C 23.328125 25.027344 23.101562 23.820312 23.175781 22.3125 C 23.703125 22.3125 25.132812 22.089844 25.507812 22.617188 M 24.078125 24.574219 L 24.53125 24.574219 L 24.53125 23.144531 C 23.777344 22.917969 24.230469 24.046875 24.078125 24.574219 "/>
<path style=" stroke:none;fill-rule:nonzero;fill:rgb(0%,12.156863%,27.058824%);fill-opacity:1;" d="M 28.367188 23.519531 C 28.21875 23.671875 27.917969 23.59375 27.617188 23.59375 C 27.316406 23.519531 27.464844 22.992188 26.9375 23.144531 C 26.789062 23.144531 26.863281 23.445312 26.863281 23.59375 C 27.464844 24.347656 28.746094 24.347656 28.292969 26.15625 C 28.066406 26.308594 27.917969 26.535156 27.691406 26.683594 C 27.238281 26.683594 26.9375 26.535156 26.410156 26.609375 C 26.261719 26.15625 25.886719 26.007812 25.960938 25.253906 C 26.1875 25.027344 26.5625 25.253906 26.863281 25.253906 L 26.863281 25.855469 C 27.164062 25.929688 27.164062 25.703125 27.390625 25.78125 C 27.539062 24.574219 26.488281 24.726562 25.960938 24.273438 C 26.035156 23.59375 25.808594 23.21875 25.960938 22.765625 C 26.410156 21.636719 28.746094 21.9375 28.367188 23.519531 "/>
<path style=" stroke:none;fill-rule:nonzero;fill:rgb(0%,12.156863%,27.058824%);fill-opacity:1;" d="M 29.722656 22.164062 L 29.722656 26.835938 C 29.347656 26.910156 29.269531 26.683594 28.894531 26.757812 L 28.894531 22.164062 Z M 29.722656 22.164062 "/>
<path style=" stroke:none;fill-rule:nonzero;fill:rgb(0%,12.156863%,27.058824%);fill-opacity:1;" d="M 31.90625 22.164062 C 32.730469 23.519531 33.335938 25.027344 33.484375 26.984375 C 32.957031 26.757812 32.882812 27.136719 32.65625 27.4375 C 31.679688 27.363281 30.851562 27.0625 30.324219 26.382812 C 30.398438 25.027344 30.25 23.519531 30.398438 22.3125 C 30.777344 22.089844 31.453125 22.238281 31.90625 22.164062 M 31.90625 26.382812 C 32.054688 26.230469 32.128906 26.007812 32.355469 26.007812 C 32.054688 25.101562 31.980469 23.820312 31.453125 23.066406 L 31.226562 23.066406 C 31.378906 24.347656 30.925781 26.15625 31.90625 26.382812 "/>
<path style=" stroke:none;fill-rule:nonzero;fill:rgb(0%,12.156863%,27.058824%);fill-opacity:1;" d="M 36.570312 22.617188 C 36.71875 24.5 36.570312 26.835938 36.644531 28.871094 C 36.269531 28.871094 36.117188 28.566406 35.742188 28.644531 L 35.742188 26.308594 C 35.589844 26.082031 35.214844 26.15625 34.839844 26.15625 C 34.6875 26.757812 34.765625 27.589844 34.613281 28.117188 C 34.386719 27.964844 34.085938 27.890625 33.710938 27.890625 C 33.710938 27.4375 34.011719 27.285156 34.011719 26.910156 C 34.160156 25.703125 33.109375 24.421875 33.109375 23.292969 C 33.109375 22.992188 33.335938 22.390625 33.558594 22.238281 C 34.386719 21.863281 36.042969 22.164062 36.570312 22.617188 M 34.765625 25.328125 L 35.742188 25.328125 L 35.742188 23.144531 L 34.3125 23.144531 C 34.238281 24.121094 34.539062 24.648438 34.765625 25.328125 "/>
<path style=" stroke:none;fill-rule:nonzero;fill:rgb(0%,12.156863%,27.058824%);fill-opacity:1;" d="M 37.171875 22.164062 C 37.925781 22.3125 38.828125 22.238281 39.65625 22.238281 C 40.40625 24.875 41.160156 27.4375 41.914062 30 C 41.386719 29.925781 41.085938 29.621094 40.632812 29.472656 C 40.484375 29.925781 40.632812 30.675781 40.179688 30.828125 C 39.429688 30.453125 38.828125 29.847656 37.925781 29.472656 C 38.148438 28.566406 37.398438 28.644531 37.171875 28.117188 Z M 38.148438 27.589844 C 38.375 28.117188 38.902344 28.265625 38.675781 29.171875 C 38.976562 29.320312 39.277344 29.472656 39.65625 29.621094 C 39.730469 29.171875 39.578125 28.492188 39.730469 28.191406 C 40.03125 28.191406 40.105469 28.417969 40.484375 28.339844 C 39.957031 26.609375 39.503906 24.800781 38.976562 23.144531 L 38.148438 23.144531 Z M 38.148438 27.589844 "/>
<path style=" stroke:none;fill-rule:nonzero;fill:rgb(0%,12.156863%,27.058824%);fill-opacity:1;" d="M 17.15625 22.238281 C 17.082031 23.894531 17.230469 25.78125 17.082031 27.285156 C 16.855469 27.363281 16.628906 27.511719 16.328125 27.511719 C 16.179688 25.929688 16.328125 23.972656 16.253906 22.238281 Z M 17.15625 22.238281 "/>
<path style=" stroke:none;fill-rule:nonzero;fill:rgb(0%,12.156863%,27.058824%);fill-opacity:1;" d="M 20.769531 22.238281 C 21.671875 22.164062 22.347656 22.3125 22.722656 22.765625 C 22.648438 22.992188 22.421875 23.144531 22.347656 23.445312 C 22.121094 23.367188 21.972656 23.144531 21.746094 23.066406 C 21.597656 23.21875 21.746094 23.671875 21.671875 23.972656 L 22.800781 23.972656 C 22.648438 24.121094 22.722656 24.648438 22.722656 24.953125 L 21.746094 24.953125 C 21.597656 25.027344 21.746094 25.480469 21.671875 25.78125 C 22.046875 25.78125 22.273438 25.628906 22.722656 25.703125 L 22.722656 26.609375 C 22.046875 26.609375 21.597656 26.757812 20.84375 26.683594 C 20.617188 25.402344 20.769531 23.746094 20.769531 22.238281 "/>
<path style=" stroke:none;fill-rule:nonzero;fill:rgb(0%,12.156863%,27.058824%);fill-opacity:1;" d="M 23.402344 27.589844 C 23.851562 28.566406 23.550781 30.300781 23.402344 31.28125 C 22.722656 31.203125 22.273438 31.355469 21.597656 31.355469 C 21.070312 29.847656 20.84375 26.757812 23.402344 27.589844 M 21.972656 28.566406 L 21.972656 30.300781 C 22.199219 30.527344 22.347656 30.753906 22.875 30.675781 C 23.101562 30.148438 23.101562 28.945312 22.949219 28.265625 C 22.574219 28.339844 22.121094 28.339844 21.972656 28.566406 "/>
<path style=" stroke:none;fill-rule:nonzero;fill:rgb(0%,12.156863%,27.058824%);fill-opacity:1;" d="M 24.230469 27.589844 C 25.808594 27.664062 25.582031 29.621094 26.488281 30.453125 C 26.636719 29.925781 26.488281 29.09375 26.5625 28.417969 C 26.488281 28.191406 26.035156 28.417969 26.035156 28.265625 L 26.035156 27.664062 L 27.164062 27.664062 L 27.164062 31.355469 C 26.710938 31.429688 26.5625 31.203125 26.109375 31.28125 C 25.734375 30.527344 25.433594 29.773438 24.980469 29.171875 C 24.53125 30.148438 25.507812 30.300781 25.28125 31.28125 L 24.605469 31.28125 C 24.757812 30.675781 24.378906 30.601562 24.230469 30.300781 Z M 24.230469 27.589844 "/>
<path style=" stroke:none;fill-rule:nonzero;fill:rgb(0%,12.156863%,27.058824%);fill-opacity:1;" d="M 29.496094 31.507812 C 28.96875 31.507812 28.519531 31.355469 28.066406 31.355469 C 27.617188 30.902344 27.238281 28.117188 28.066406 27.738281 C 28.441406 27.589844 28.96875 27.890625 29.496094 27.890625 C 30.25 28.417969 30.25 31.054688 29.496094 31.507812 M 28.292969 30.601562 C 28.519531 30.828125 28.820312 30.902344 29.269531 30.828125 C 29.570312 30.300781 29.421875 29.171875 29.347656 28.566406 C 28.066406 27.890625 28.292969 29.472656 28.292969 30.601562 "/>
<path style=" stroke:none;fill-rule:nonzero;fill:rgb(0%,12.156863%,27.058824%);fill-opacity:1;" d="M 20.84375 27.8125 L 20.84375 28.644531 C 20.390625 28.871094 20.242188 28.492188 19.714844 28.566406 C 19.339844 28.945312 19.640625 30.074219 19.5625 30.753906 C 19.5625 30.980469 19.941406 30.753906 20.015625 30.828125 L 20.015625 31.507812 C 19.414062 31.507812 19.039062 31.808594 18.433594 31.730469 L 18.433594 31.128906 C 18.511719 31.054688 18.738281 31.054688 18.886719 31.054688 L 18.886719 28.71875 C 18.132812 28.566406 18.285156 29.320312 17.609375 29.171875 L 17.609375 28.265625 C 18.585938 28.039062 19.488281 27.738281 20.84375 27.8125 "/>
<path style=" stroke:none;fill-rule:nonzero;fill:rgb(0%,12.156863%,27.058824%);fill-opacity:1;" d="M 30.550781 28.117188 C 31 28.039062 31.226562 28.191406 31.605469 28.265625 C 31.980469 28.945312 32.207031 29.773438 32.429688 30.675781 C 32.957031 30.226562 33.035156 29.320312 33.484375 28.792969 C 33.785156 28.945312 34.160156 28.945312 34.464844 29.171875 L 34.464844 31.808594 C 34.3125 32.109375 34.011719 32.335938 34.160156 32.9375 C 33.785156 32.9375 33.636719 32.710938 33.410156 32.5625 C 33.410156 31.582031 33.9375 31.054688 33.710938 29.847656 C 33.257812 30.601562 32.882812 31.507812 32.429688 32.261719 C 31.90625 31.429688 31.753906 30.148438 31.300781 29.246094 C 30.777344 30.375 31.605469 30.828125 31.527344 31.957031 C 31.300781 31.882812 31 31.882812 30.777344 31.808594 C 30.550781 30.753906 30.476562 29.472656 30.550781 28.117188 "/>
<path style=" stroke:none;fill-rule:nonzero;fill:rgb(0%,12.156863%,27.058824%);fill-opacity:1;" d="M 17.003906 28.417969 C 16.855469 29.546875 17.230469 30.753906 17.003906 31.582031 C 16.78125 32.5625 15.199219 33.164062 14.597656 32.183594 C 14.597656 31.128906 14.597656 30.148438 14.523438 29.171875 C 14.824219 29.019531 15.199219 28.871094 15.652344 28.792969 C 15.5 29.699219 15.199219 30.828125 15.5 31.882812 C 16.027344 31.882812 16.253906 31.582031 16.480469 31.28125 C 16.628906 30 16.328125 29.546875 16.253906 28.644531 C 16.402344 28.566406 16.703125 28.492188 17.003906 28.417969 "/>
<path style=" stroke:none;fill-rule:nonzero;fill:rgb(0%,12.156863%,27.058824%);fill-opacity:1;" d="M 14.070312 29.699219 C 14.144531 31.054688 14.070312 32.335938 13.921875 33.464844 C 13.695312 33.617188 13.46875 33.691406 13.09375 33.765625 C 13.019531 33.089844 13.320312 32.789062 13.394531 32.261719 C 13.019531 32.183594 12.414062 32.636719 12.113281 32.9375 C 12.566406 33.464844 12.492188 34.519531 11.738281 34.59375 C 11.589844 33.390625 11.363281 32.261719 11.511719 30.828125 C 12.113281 30.226562 12.867188 29.699219 14.070312 29.699219 M 13.242188 30.375 C 12.941406 30.601562 12.492188 30.753906 12.113281 30.902344 C 12.191406 31.28125 12.039062 31.808594 12.191406 32.035156 C 12.566406 31.808594 12.941406 31.582031 13.394531 31.429688 C 13.320312 31.128906 13.542969 30.453125 13.242188 30.375 "/>
<path style=" stroke:none;fill-rule:nonzero;fill:rgb(0%,12.156863%,27.058824%);fill-opacity:1;" d="M 37.472656 30.675781 C 37.546875 32.183594 37.398438 33.464844 37.246094 34.671875 C 37.019531 34.59375 36.871094 34.445312 36.71875 34.292969 C 36.644531 33.691406 36.871094 33.390625 36.871094 32.863281 C 36.570312 32.5625 36.117188 32.410156 35.742188 32.261719 C 35.589844 32.636719 36.042969 33.089844 35.894531 33.765625 C 35.589844 33.765625 35.515625 33.464844 35.140625 33.539062 C 34.988281 32.410156 34.765625 30.980469 34.988281 29.773438 C 36.117188 29.699219 36.71875 30.226562 37.472656 30.675781 M 35.589844 31.429688 C 35.96875 31.65625 36.34375 31.882812 36.871094 31.957031 L 36.871094 30.902344 C 36.417969 30.753906 36.042969 30.527344 35.589844 30.375 Z M 35.589844 31.429688 "/>
<path style=" stroke:none;fill-rule:nonzero;fill:rgb(0%,12.156863%,27.058824%);fill-opacity:1;" d="M 23.328125 33.539062 C 28.441406 33.089844 32.582031 35.800781 34.464844 39.417969 C 36.117188 42.734375 36.117188 47.40625 34.3125 50.644531 C 32.28125 54.261719 28.140625 56.972656 23.328125 56.519531 C 19.488281 56.21875 16.253906 53.660156 14.523438 50.492188 C 13.542969 48.609375 12.792969 45.371094 13.320312 42.65625 C 13.621094 41.300781 14.144531 40.246094 14.597656 39.417969 C 16.253906 36.554688 19.1875 33.917969 23.328125 33.539062 M 14.597656 40.546875 C 12.792969 44.542969 14.144531 49.363281 15.800781 51.699219 C 17.609375 54.261719 20.617188 56.21875 24.53125 56.21875 C 30.476562 56.21875 35.894531 50.945312 35.140625 43.5625 C 34.839844 40.847656 33.035156 38.210938 31.828125 37.007812 C 29.796875 35.046875 26.710938 33.765625 22.875 34.21875 C 19.1875 34.59375 15.953125 37.683594 14.597656 40.546875 "/>
<path style=" stroke:none;fill-rule:nonzero;fill:rgb(0%,12.156863%,27.058824%);fill-opacity:1;" d="M 8.652344 36.628906 C 9.03125 37.308594 8.730469 38.664062 8.804688 39.644531 L 6.546875 39.644531 C 7.148438 38.589844 7.976562 37.683594 8.652344 36.628906 "/>
<path style=" stroke:none;fill-rule:nonzero;fill:rgb(0%,12.156863%,27.058824%);fill-opacity:1;" d="M 40.40625 36.628906 C 41.085938 37.609375 42.0625 38.664062 42.515625 39.644531 L 40.40625 39.644531 Z M 40.40625 36.628906 "/>
<path style=" stroke:none;fill-rule:nonzero;fill:rgb(0%,12.156863%,27.058824%);fill-opacity:1;" d="M 5.191406 50.871094 L 7.449219 50.871094 L 7.449219 51.925781 C 7.300781 52.074219 6.921875 52 6.621094 52 C 6.695312 52.378906 6.847656 52.679688 6.996094 52.980469 L 9.40625 52.980469 C 9.554688 52.828125 9.40625 52.378906 9.480469 52.074219 C 9.480469 51.851562 9.105469 52.074219 8.953125 52 L 8.953125 50.871094 L 10.609375 50.871094 C 10.761719 51.699219 10.761719 53.128906 10.609375 53.960938 C 10.234375 54.109375 9.554688 53.960938 9.105469 54.035156 C 8.730469 55.769531 9.40625 57.125 9.332031 58.78125 C 8.503906 57.800781 7.824219 56.746094 7.074219 55.691406 L 7.074219 54.636719 C 7.449219 54.636719 7.449219 55.089844 7.75 55.164062 L 7.75 54.109375 L 6.773438 54.109375 C 6.019531 53.355469 5.265625 52.453125 5.191406 50.871094 "/>
<path style=" stroke:none;fill-rule:nonzero;fill:rgb(0%,12.156863%,27.058824%);fill-opacity:1;" d="M 11.511719 50.871094 C 12.414062 51.925781 13.542969 52.753906 13.46875 54.9375 C 13.320312 55.390625 13.019531 54.636719 12.792969 54.5625 L 12.792969 59.609375 C 12.867188 60.0625 13.394531 60.0625 13.242188 60.742188 C 13.46875 61.117188 13.921875 61.191406 14.222656 61.417969 C 14.371094 61.117188 14.371094 60.742188 14.898438 60.890625 L 14.898438 56.746094 C 14.371094 56.371094 14.222656 55.691406 14.371094 54.636719 C 15.050781 55.015625 15.652344 55.464844 16.027344 56.144531 L 16.027344 62.097656 C 15.574219 62.324219 15.351562 62.773438 14.972656 63.152344 C 13.921875 62.773438 13.242188 61.945312 12.191406 61.570312 C 12.265625 60.742188 11.964844 60.4375 11.738281 60.0625 C 11.8125 56.824219 11.589844 53.960938 11.511719 50.871094 "/>
<path style=" stroke:none;fill-rule:nonzero;fill:rgb(0%,12.156863%,27.058824%);fill-opacity:1;" d="M 37.847656 50.871094 L 37.847656 59.460938 C 37.773438 59.6875 37.625 59.761719 37.546875 59.988281 C 37.847656 60.96875 37.472656 61.796875 36.71875 61.945312 C 36.417969 60.816406 36.71875 59.835938 36.71875 58.554688 C 36.117188 58.78125 35.515625 59.761719 34.914062 60.214844 C 35.066406 61.042969 35.589844 61.570312 35.367188 62.773438 C 34.914062 62.925781 34.613281 63.226562 34.160156 63.378906 C 34.011719 62.851562 34.160156 61.871094 33.710938 61.71875 L 33.710938 55.464844 C 34.765625 53.882812 36.269531 52.828125 37.019531 50.871094 Z M 34.914062 55.992188 C 34.6875 56.746094 35.066406 57.5 35.066406 58.480469 C 35.367188 57.800781 36.496094 57.351562 36.71875 56.519531 C 36.945312 55.84375 36.644531 54.9375 36.644531 54.035156 C 36.34375 54.789062 35.140625 55.089844 34.914062 55.992188 "/>
<path style=" stroke:none;fill-rule:nonzero;fill:rgb(0%,12.156863%,27.058824%);fill-opacity:1;" d="M 38.675781 50.871094 L 39.878906 50.871094 C 40.632812 51.851562 41.160156 53.054688 41.835938 54.109375 C 42.289062 53.660156 42.515625 52.980469 42.589844 52.074219 C 42.4375 51.851562 41.988281 52.074219 41.761719 51.925781 L 41.761719 50.871094 C 42.589844 50.871094 43.492188 50.796875 44.167969 50.945312 C 44.019531 52.226562 43.71875 53.660156 43.039062 54.863281 C 42.964844 55.089844 42.136719 56.371094 41.988281 56.371094 C 41.609375 56.371094 41.160156 55.390625 40.933594 55.015625 C 40.558594 54.335938 40.40625 53.960938 40.03125 53.507812 C 39.878906 54.488281 40.03125 55.917969 39.957031 57.046875 C 40.859375 58.027344 40.03125 59.609375 39.128906 59.988281 L 39.128906 58.40625 C 39.054688 58.105469 38.75 58.027344 38.675781 57.726562 Z M 38.675781 50.871094 "/>
<path style=" stroke:none;fill-rule:nonzero;fill:rgb(0%,12.156863%,27.058824%);fill-opacity:1;" d="M 32.957031 59.082031 C 32.582031 59.160156 32.28125 59.234375 31.980469 59.460938 C 31.828125 59.160156 31.980469 58.554688 31.90625 58.105469 C 31.453125 58.328125 30.925781 58.480469 30.699219 59.007812 L 30.699219 63.527344 C 30.851562 63.753906 31.378906 63.605469 31.605469 63.527344 L 31.605469 64.734375 C 30.625 64.808594 29.871094 65.1875 28.96875 65.261719 L 28.96875 64.054688 C 29.195312 64.132812 29.269531 63.90625 29.570312 63.980469 L 29.570312 60.289062 C 29.046875 60.742188 27.992188 61.269531 28.21875 62.851562 L 27.089844 62.851562 L 27.089844 61.417969 C 28.066406 60.214844 29.046875 59.082031 29.949219 57.800781 C 30.777344 57.652344 32.207031 55.917969 32.882812 56.746094 C 33.183594 57.125 32.882812 58.105469 32.957031 59.082031 "/>
<path style=" stroke:none;fill-rule:nonzero;fill:rgb(0%,12.156863%,27.058824%);fill-opacity:1;" d="M 20.992188 60.515625 C 20.769531 60.742188 20.46875 60.890625 20.242188 61.117188 C 19.339844 60.515625 19.339844 59.007812 18.132812 58.855469 C 18.058594 60.664062 17.53125 63.753906 19.339844 63.828125 C 19.488281 63.753906 19.414062 63.378906 19.5625 63.300781 C 20.089844 63.226562 20.390625 63.453125 20.84375 63.453125 L 20.84375 64.582031 C 20.167969 64.355469 20.390625 65.1875 20.015625 65.261719 C 19.039062 65.261719 18.210938 64.507812 17.15625 64.355469 C 17.230469 63.828125 16.929688 63.679688 16.78125 63.453125 L 16.78125 56.972656 C 16.929688 56.898438 17.003906 56.824219 17.003906 56.671875 C 19.113281 57.273438 20.167969 58.707031 20.992188 60.515625 "/>
<path style=" stroke:none;fill-rule:nonzero;fill:rgb(0%,12.156863%,27.058824%);fill-opacity:1;" d="M 28.21875 58.40625 C 28.140625 59.609375 26.710938 59.234375 26.1875 59.910156 C 26.261719 60.0625 26.9375 60.0625 27.011719 59.910156 C 27.164062 60.589844 26.410156 61.042969 25.582031 60.890625 C 25.507812 61.34375 25.660156 61.644531 25.734375 61.945312 C 25.886719 62.097656 26.1875 62.023438 26.410156 62.097656 L 26.410156 62.699219 C 26.1875 62.851562 25.734375 62.773438 25.359375 62.773438 C 25.058594 62.023438 24.53125 61.644531 24.605469 60.890625 C 24.679688 59.988281 25.960938 59.308594 26.1875 58.632812 C 26.9375 58.632812 27.539062 58.40625 28.21875 58.40625 "/>
<path style=" stroke:none;fill-rule:nonzero;fill:rgb(0%,12.156863%,27.058824%);fill-opacity:1;" d="M 24.304688 60.289062 C 24.304688 61.496094 24.152344 62.398438 23.402344 62.773438 C 22.648438 61.570312 21.820312 60.515625 21.070312 59.308594 C 21.898438 57.652344 23.476562 59.609375 24.304688 60.289062 M 23.550781 61.417969 C 23.550781 60.4375 22.949219 60.136719 22.273438 59.835938 C 22.574219 60.515625 23.027344 60.96875 23.550781 61.417969 "/>
<path style=" stroke:none;fill-rule:nonzero;fill:rgb(0%,12.156863%,27.058824%);fill-opacity:1;" d="M 27.089844 63.828125 C 27.464844 64.582031 27.316406 65.789062 27.316406 66.996094 C 27.316406 68.652344 27.539062 70.460938 26.9375 71.214844 L 26.9375 72.722656 C 26.710938 72.871094 26.1875 72.796875 25.808594 72.796875 C 25.660156 71.214844 26.109375 70.386719 26.035156 69.027344 L 23.703125 69.027344 C 23.550781 69.554688 23.550781 70.609375 24.003906 70.609375 L 24.003906 72.722656 C 23.777344 72.871094 23.25 72.796875 22.875 72.796875 C 22.949219 71.742188 22.875 70.761719 22.273438 70.386719 C 22.273438 68.199219 22.199219 65.941406 22.347656 63.90625 C 23.703125 63.679688 25.582031 63.980469 27.089844 63.828125 M 23.550781 65.1875 L 23.550781 67.746094 C 24.230469 67.898438 25.507812 67.898438 26.1875 67.746094 L 26.1875 65.1875 C 25.507812 65.035156 24.230469 65.035156 23.550781 65.1875 "/>
<path style=" stroke:none;fill-rule:nonzero;fill:rgb(0%,12.156863%,27.058824%);fill-opacity:1;" d="M 18.511719 3.703125 C 19.863281 2.421875 20.542969 5.210938 21.445312 5.886719 C 20.390625 5.585938 19.039062 4.832031 18.511719 3.703125 "/>
<path style=" stroke:none;fill-rule:nonzero;fill:rgb(0%,12.156863%,27.058824%);fill-opacity:1;" d="M 29.496094 9.730469 C 29.421875 9.730469 29.421875 9.730469 29.496094 9.730469 C 30.023438 9.429688 31.152344 9.128906 32.207031 8.75 C 32.808594 8.527344 34.914062 7.546875 34.914062 8.75 C 34.914062 9.730469 33.183594 9.503906 32.429688 9.582031 C 31.300781 9.65625 30.550781 9.730469 29.496094 9.730469 "/>
<path style=" stroke:none;fill-rule:nonzero;fill:rgb(0%,12.156863%,27.058824%);fill-opacity:1;" d="M 19.941406 14.402344 C 20.316406 14.402344 19.941406 14.554688 19.789062 14.476562 C 16.554688 15.53125 13.167969 16.664062 9.632812 17.71875 C 9.105469 17.867188 6.394531 19.074219 6.695312 17.339844 C 6.847656 16.585938 8.953125 16.585938 9.855469 16.363281 C 13.167969 15.683594 16.628906 14.929688 19.863281 14.328125 L 19.941406 14.328125 Z M 19.941406 14.402344 "/>
<path style=" stroke:none;fill-rule:nonzero;fill:rgb(0%,12.156863%,27.058824%);fill-opacity:1;" d="M 29.269531 39.039062 C 31.980469 38.964844 33.257812 39.71875 33.035156 43.035156 C 33.035156 43.488281 32.882812 44.238281 32.730469 44.765625 C 32.429688 45.972656 32.28125 46.800781 31.605469 47.328125 C 32.054688 48.460938 32.882812 49.210938 33.257812 50.417969 C 31.378906 50.644531 29.648438 50.042969 28.066406 50.417969 C 27.164062 50.644531 26.035156 52 25.359375 52.601562 C 24.457031 53.433594 23.550781 54.1875 22.800781 54.863281 C 21.597656 53.507812 20.46875 51.925781 19.488281 50.34375 L 15.351562 50.34375 C 15.726562 49.363281 16.253906 48.460938 16.628906 47.480469 C 15.574219 46.953125 14.371094 46.425781 14.296875 45.070312 C 14.222656 42.882812 16.929688 41.074219 18.660156 40.847656 C 18.660156 40.171875 18.660156 39.570312 18.738281 38.964844 C 18.8125 38.890625 19.039062 38.890625 19.1875 38.890625 C 19.941406 35.425781 24.980469 33.84375 27.691406 36.628906 C 28.441406 37.382812 28.820312 38.210938 29.269531 39.039062 M 25.808594 36.027344 C 25.808594 35.726562 25.28125 35.652344 25.132812 35.726562 C 25.359375 35.875 25.507812 36.101562 25.808594 36.027344 M 23.550781 35.875 C 23.476562 36.101562 22.949219 36.101562 23.175781 36.402344 M 23.476562 36.628906 C 23.777344 36.628906 23.851562 36.78125 24.230469 36.707031 C 24.230469 36.328125 24.230469 36.027344 24.078125 35.800781 C 24.003906 36.253906 23.476562 36.253906 23.476562 36.628906 M 24.53125 36.78125 L 25.207031 36.78125 C 25.132812 36.328125 24.757812 36.179688 24.53125 35.875 C 24.457031 36.253906 24.378906 36.402344 24.53125 36.78125 M 20.992188 37.082031 C 21.671875 37.234375 22.199219 36.402344 22.648438 36.027344 C 22.046875 35.953125 21.21875 36.480469 20.992188 37.082031 M 25.582031 36.480469 C 25.582031 36.179688 25.132812 35.800781 24.90625 36.027344 C 25.28125 36.027344 25.058594 36.628906 25.582031 36.480469 M 26.035156 36.402344 C 26.636719 36.480469 27.089844 37.835938 27.617188 37.234375 C 27.390625 36.855469 26.710938 36.179688 26.035156 36.101562 C 26.035156 36.253906 25.886719 36.253906 26.035156 36.402344 M 21.445312 37.609375 C 21.671875 37.835938 22.121094 38.363281 22.5 38.210938 C 22.648438 37.683594 23.027344 37.007812 22.949219 36.480469 C 22.347656 36.402344 21.746094 37.082031 21.445312 37.609375 M 26.035156 38.511719 C 26.488281 38.363281 26.9375 38.210938 27.089844 37.683594 C 26.789062 37.15625 26.109375 36.328125 25.507812 36.707031 M 22.722656 38.511719 C 23.175781 38.664062 23.550781 38.816406 24.152344 38.738281 L 24.152344 37.007812 C 23.777344 37.007812 23.476562 36.929688 23.25 36.855469 C 23.101562 37.382812 22.875 37.910156 22.722656 38.511719 M 24.53125 37.082031 L 24.53125 38.738281 C 24.90625 38.890625 25.433594 38.664062 25.808594 38.589844 C 25.582031 37.835938 25.582031 36.554688 24.53125 37.082031 M 19.5625 38.964844 C 19.640625 39.191406 19.863281 39.34375 20.167969 39.417969 C 20.089844 38.4375 20.992188 38.136719 20.84375 37.308594 C 20.316406 37.382812 19.789062 38.289062 19.5625 38.964844 M 27.691406 37.910156 C 27.992188 38.363281 28.21875 38.816406 28.441406 39.417969 C 28.820312 39.417969 28.894531 39.191406 29.121094 38.964844 C 28.59375 38.589844 28.519531 37.761719 27.992188 37.382812 C 27.839844 37.609375 27.691406 37.609375 27.691406 37.910156 M 20.242188 39.644531 C 20.84375 39.871094 21.292969 40.320312 22.046875 40.546875 C 22.046875 39.792969 22.273438 39.417969 22.273438 38.664062 C 21.898438 38.289062 21.519531 37.984375 21.070312 37.761719 C 20.769531 38.4375 20.542969 39.039062 20.242188 39.644531 M 27.238281 38.0625 C 26.9375 38.363281 26.636719 38.664062 26.1875 38.738281 C 26.410156 39.265625 26.488281 39.945312 26.488281 40.699219 C 27.164062 40.472656 27.691406 40.097656 28.140625 39.71875 C 27.992188 39.039062 27.839844 38.363281 27.238281 38.0625 M 22.273438 40.699219 C 22.875 40.847656 23.476562 41.074219 24.230469 41.074219 L 24.230469 39.191406 C 23.703125 39.039062 23.175781 38.890625 22.648438 38.738281 C 22.5 39.492188 22.273438 39.945312 22.273438 40.699219 M 24.457031 39.191406 L 24.457031 41.152344 C 25.132812 41.152344 25.660156 41 26.261719 40.847656 C 26.1875 40.171875 26.035156 39.570312 26.035156 38.890625 C 25.507812 39.039062 24.90625 39.039062 24.457031 39.191406 M 26.863281 44.238281 C 27.011719 44.917969 27.011719 44.464844 26.488281 44.542969 C 26.261719 44.691406 26.710938 44.992188 26.335938 44.992188 L 26.109375 44.992188 C 25.960938 44.089844 25.660156 43.335938 25.808594 42.207031 C 25.582031 42.28125 25.660156 42.054688 25.507812 42.054688 C 25.359375 42.207031 25.132812 42.28125 25.207031 42.65625 C 25.207031 42.960938 25.660156 42.808594 25.808594 43.035156 C 25.507812 43.183594 25.433594 43.183594 25.058594 43.109375 C 24.832031 44.691406 25.28125 45.597656 25.359375 47.027344 C 26.035156 47.027344 26.488281 47.179688 27.238281 47.101562 C 28.59375 45.21875 30.851562 43.035156 29.722656 39.34375 C 29.195312 39.265625 29.421875 40.472656 29.796875 40.699219 C 29.648438 40.699219 29.648438 40.625 29.496094 40.625 C 29.570312 42.28125 29.269531 43.5625 28.441406 44.238281 C 28.667969 43.183594 29.421875 42.65625 29.195312 41.074219 C 28.96875 41.074219 28.820312 41.074219 28.820312 40.925781 C 29.046875 41 29.121094 40.847656 29.269531 40.847656 C 29.269531 40.546875 29.347656 40.171875 29.046875 40.171875 L 28.820312 40.171875 C 28.367188 41.753906 27.992188 43.410156 26.863281 44.238281 M 21.972656 44.238281 C 20.617188 43.5625 20.390625 41.527344 19.863281 39.945312 C 19.261719 39.945312 19.5625 40.847656 19.863281 40.925781 L 19.5625 40.925781 C 19.339844 42.429688 20.242188 43.183594 20.316406 44.089844 C 19.5625 43.335938 19.261719 42.207031 19.339844 40.546875 C 19.1875 40.546875 19.039062 40.546875 19.039062 40.472656 C 19.039062 40.171875 19.488281 40.398438 19.414062 40.019531 C 19.414062 39.644531 19.488281 39.191406 19.113281 39.191406 C 18.285156 42.882812 20.089844 45.144531 21.445312 47.027344 C 22.121094 46.953125 22.722656 46.800781 23.550781 46.878906 C 23.628906 45.671875 24.003906 44.089844 23.628906 42.882812 C 23.628906 43.035156 23.101562 43.261719 23.175781 42.882812 C 23.175781 42.65625 23.628906 42.882812 23.628906 42.734375 C 23.703125 42.28125 23.550781 42.054688 23.175781 42.054688 C 22.875 43.035156 23.25 44.765625 22.273438 45.070312 C 22.273438 44.84375 22.421875 44.84375 22.347656 44.542969 C 22.046875 44.390625 21.820312 44.84375 21.671875 44.617188 C 21.820312 44.617188 21.898438 44.464844 21.972656 44.238281 M 19.488281 39.71875 C 19.640625 39.71875 19.789062 39.71875 19.789062 39.644531 C 19.640625 39.570312 19.640625 39.34375 19.488281 39.265625 Z M 28.820312 39.71875 L 29.121094 39.71875 C 29.121094 39.570312 29.121094 39.417969 29.046875 39.34375 C 29.046875 39.644531 28.746094 39.492188 28.820312 39.71875 M 29.871094 39.570312 C 30.25 39.492188 30.925781 39.71875 31.152344 39.492188 C 30.925781 39.492188 30.023438 39.191406 29.871094 39.570312 M 29.871094 40.019531 C 30.476562 40.246094 31.378906 40.019531 32.128906 40.097656 C 31.90625 39.644531 30.324219 39.792969 29.871094 40.019531 M 21.972656 42.65625 C 21.972656 41.980469 21.972656 41.453125 21.898438 40.925781 C 21.371094 40.625 20.84375 40.320312 20.316406 40.019531 C 20.242188 41.527344 20.691406 42.507812 21.972656 42.65625 M 28.140625 40.171875 C 27.691406 40.472656 27.164062 40.773438 26.636719 41.074219 L 26.636719 42.734375 C 27.164062 42.808594 27.464844 42.65625 27.839844 42.429688 C 28.066406 41.980469 28.519531 40.773438 28.140625 40.171875 M 29.871094 40.546875 L 29.871094 40.699219 C 30.550781 40.625 32.207031 40.925781 32.28125 40.546875 C 31.90625 40.246094 30.324219 40.246094 29.871094 40.546875 M 22.347656 42.960938 C 23.027344 42.808594 22.574219 41.980469 23.175781 41.828125 C 23.777344 41.679688 23.851562 42.507812 24.152344 43.035156 C 24.304688 42.65625 24.152344 41.980469 24.230469 41.453125 C 23.402344 41.453125 22.949219 41.152344 22.199219 41.074219 C 22.273438 41.679688 21.972656 42.582031 22.347656 42.960938 M 32.507812 41.226562 C 31.90625 41.152344 30.476562 41 30.023438 41.300781 M 17.757812 41.601562 L 18.585938 41.601562 C 18.738281 41 17.832031 41.375 17.757812 41.601562 M 24.53125 41.453125 L 24.53125 43.035156 C 24.90625 42.65625 24.832031 41.753906 25.582031 41.828125 C 26.035156 41.902344 25.808594 42.734375 25.960938 43.035156 C 26.335938 42.734375 26.1875 41.828125 26.335938 41.300781 C 25.660156 41.226562 25.058594 41.300781 24.53125 41.453125 M 16.929688 42.128906 C 17.382812 41.980469 18.433594 42.429688 18.511719 41.828125 C 18.132812 41.679688 17.082031 41.679688 16.929688 42.128906 M 30.023438 42.054688 C 30.699219 42.128906 32.054688 42.28125 32.582031 41.980469 C 31.90625 41.828125 30.476562 41.679688 30.023438 42.054688 M 15.878906 42.808594 C 16.78125 42.734375 18.058594 43.035156 18.660156 42.65625 C 18.058594 42.355469 16.328125 42.355469 15.878906 42.808594 M 22.347656 44.238281 C 22.273438 43.183594 21.597656 42.734375 20.84375 42.507812 C 21.144531 43.261719 21.671875 43.863281 22.347656 44.238281 M 29.871094 42.582031 L 29.871094 42.882812 L 31.378906 42.882812 C 31.828125 42.882812 32.582031 43.109375 32.65625 42.582031 C 31.980469 42.429688 30.699219 42.429688 29.871094 42.582031 M 26.5625 43.109375 C 26.5625 43.710938 25.808594 44.015625 26.261719 44.542969 C 26.789062 44.089844 27.238281 43.636719 27.539062 42.960938 C 27.316406 42.808594 26.863281 43.109375 26.5625 43.109375 M 15.726562 43.183594 C 15.652344 43.183594 15.652344 43.261719 15.574219 43.261719 C 15.574219 43.335938 15.425781 43.410156 15.652344 43.410156 L 18.886719 43.410156 C 18.285156 42.882812 16.703125 43.335938 15.726562 43.183594 M 22.574219 43.789062 C 22.722656 43.789062 22.574219 43.410156 22.648438 43.261719 C 22.5 43.261719 22.421875 43.261719 22.347656 43.183594 C 22.347656 43.488281 22.347656 43.789062 22.574219 43.789062 M 29.722656 43.335938 C 30.476562 43.410156 31.980469 43.5625 32.582031 43.261719 C 31.828125 43.183594 30.324219 43.035156 29.722656 43.335938 M 24.230469 44.84375 L 24.230469 43.335938 L 24.003906 43.335938 C 24.003906 43.9375 23.851562 44.617188 24.230469 44.84375 M 24.605469 44.84375 C 24.605469 44.464844 24.90625 43.5625 24.53125 43.335938 C 24.53125 43.863281 24.378906 44.542969 24.605469 44.84375 M 17.457031 43.9375 L 15.351562 43.9375 C 15.273438 43.9375 15.273438 44.015625 15.273438 44.089844 C 16.101562 44.316406 17.984375 44.089844 19.1875 44.164062 C 18.886719 43.710938 18.132812 43.9375 17.457031 43.9375 M 29.496094 44.089844 C 29.949219 44.164062 31.828125 44.316406 32.429688 44.015625 C 31.679688 43.863281 30.097656 43.710938 29.496094 44.089844 M 14.898438 44.765625 C 16.253906 44.917969 18.132812 44.917969 19.488281 44.765625 C 18.359375 44.464844 16.101562 44.464844 14.898438 44.765625 M 29.121094 44.691406 C 29.121094 44.765625 28.96875 44.84375 29.195312 44.84375 C 30.175781 44.691406 31.527344 45.070312 32.28125 44.691406 C 31.378906 44.542969 29.949219 44.542969 29.121094 44.691406 M 20.167969 45.519531 C 18.738281 45.144531 16.328125 45.371094 14.75 45.445312 C 16.253906 45.746094 18.585938 45.597656 20.167969 45.519531 M 23.929688 45.519531 C 23.703125 45.597656 24.832031 45.746094 24.757812 45.445312 C 24.679688 45.292969 23.929688 45.144531 23.929688 45.519531 M 28.519531 45.371094 C 28.519531 45.445312 28.367188 45.519531 28.59375 45.519531 C 29.722656 45.371094 31.453125 45.820312 32.128906 45.21875 C 31 45.371094 29.570312 45.21875 28.519531 45.371094 M 15.273438 46.347656 L 20.542969 46.347656 C 20.089844 45.746094 18.960938 45.972656 18.058594 45.972656 L 15.125 45.972656 C 15.125 46.199219 15.273438 46.199219 15.273438 46.347656 M 23.851562 46.199219 C 24.003906 46.273438 24.832031 46.425781 24.832031 46.125 C 24.679688 45.972656 23.851562 45.898438 23.851562 46.199219 M 28.066406 46.125 C 28.066406 46.273438 27.992188 46.273438 27.992188 46.347656 L 30.097656 46.347656 C 30.777344 46.347656 31.753906 46.574219 31.980469 46.125 C 30.851562 45.972656 29.195312 45.972656 28.066406 46.125 M 20.917969 46.878906 C 19.5625 46.5 17.308594 46.726562 15.878906 46.800781 C 17.15625 47.179688 19.414062 47.027344 20.917969 46.878906 M 23.550781 46.878906 C 23.851562 47.480469 24.832031 47.554688 25.058594 46.878906 C 24.832031 46.652344 23.777344 46.574219 23.550781 46.878906 M 27.464844 47.027344 C 28.894531 46.800781 30.625 47.480469 31.605469 46.726562 C 30.25 46.878906 28.441406 46.425781 27.464844 47.027344 M 15.953125 50.117188 L 23.175781 50.117188 C 23.628906 51.019531 24.90625 50.871094 25.433594 50.117188 L 32.65625 50.117188 C 32.128906 49.289062 31.679688 48.308594 31.152344 47.40625 L 29.421875 47.40625 C 28.59375 47.554688 30.398438 47.40625 30.550781 47.480469 C 31.078125 47.707031 31.078125 49.136719 31.527344 49.363281 C 23.402344 49.738281 24.152344 49.964844 24.304688 49.890625 C 22.800781 48.15625 19.640625 49.738281 17.230469 49.289062 C 17.53125 48.761719 17.683594 48.082031 18.058594 47.628906 C 18.511719 47.628906 18.960938 47.628906 19.339844 47.554688 L 20.015625 47.554688 C 20.390625 47.628906 20.390625 47.40625 20.015625 47.480469 L 17.082031 47.480469 C 17.003906 47.480469 17.003906 47.480469 17.003906 47.554688 C 16.929688 48.308594 16.328125 49.289062 15.953125 50.117188 M 23.476562 50.71875 C 22.648438 50.34375 21.21875 50.644531 20.167969 50.570312 C 20.617188 51.019531 22.648438 50.71875 23.476562 50.71875 M 25.28125 50.644531 C 25.359375 51.019531 26.863281 50.945312 27.164062 50.570312 C 26.5625 50.570312 25.808594 50.417969 25.28125 50.644531 M 20.769531 51.546875 C 22.648438 51.324219 25.207031 52 26.5625 51.171875 L 20.542969 51.171875 C 20.542969 51.472656 20.769531 51.398438 20.769531 51.546875 M 21.21875 52.226562 C 22.5 52.226562 24.832031 52.679688 25.734375 52 C 24.152344 52.074219 22.421875 51.851562 20.992188 52.074219 C 21.070312 52 21.070312 52.226562 21.21875 52.226562 M 24.90625 52.679688 C 23.777344 52.753906 22.5 52.527344 21.519531 52.753906 C 22.121094 53.128906 24.378906 53.207031 24.90625 52.679688 M 22.046875 53.433594 C 22.421875 53.734375 23.851562 53.734375 24.152344 53.355469 M 23.25 54.035156 C 23.027344 54.109375 22.648438 53.960938 22.574219 54.109375 C 22.722656 54.410156 23.175781 54.410156 23.25 54.035156 "/>
<path style=" stroke:none;fill-rule:nonzero;fill:rgb(0%,12.156863%,27.058824%);fill-opacity:1;" d="M 52.523438 11.464844 L 52.523438 10.484375 L 61.550781 10.484375 L 61.550781 11.464844 L 61.25 11.464844 C 59.972656 11.539062 59.21875 11.691406 58.992188 11.992188 C 58.765625 12.292969 58.617188 13.121094 58.617188 14.554688 L 58.617188 24.648438 C 58.617188 27.0625 58.691406 28.71875 58.765625 29.472656 C 58.917969 30.226562 59.21875 30.902344 59.671875 31.582031 C 60.648438 32.9375 62.152344 33.617188 64.183594 33.617188 C 66.066406 33.617188 67.570312 33.011719 68.699219 31.882812 C 69.300781 31.203125 69.753906 30.527344 69.902344 29.699219 C 70.128906 28.871094 70.203125 27.4375 70.203125 25.402344 L 70.203125 14.554688 C 70.203125 13.121094 70.054688 12.21875 69.828125 11.992188 C 69.601562 11.765625 68.851562 11.539062 67.570312 11.464844 L 67.269531 11.464844 L 67.269531 10.484375 L 74.644531 10.484375 L 74.644531 11.464844 L 74.34375 11.464844 C 73.0625 11.539062 72.3125 11.691406 72.085938 11.992188 C 71.859375 12.292969 71.785156 13.121094 71.785156 14.554688 L 71.785156 24.5 C 71.785156 26.683594 71.632812 28.339844 71.410156 29.320312 C 71.183594 30.375 70.65625 31.28125 69.980469 32.183594 C 68.625 33.84375 66.519531 34.671875 63.734375 34.671875 C 58.015625 34.671875 55.15625 31.507812 55.15625 25.253906 L 55.15625 14.554688 C 55.15625 13.121094 55.003906 12.21875 54.78125 11.992188 C 54.554688 11.691406 53.800781 11.539062 52.523438 11.464844 Z M 52.523438 11.464844 "/>
<path style=" stroke:none;fill-rule:nonzero;fill:rgb(0%,12.156863%,27.058824%);fill-opacity:1;" d="M 80.964844 26.835938 L 79.609375 30 C 79.085938 31.203125 78.859375 32.035156 78.859375 32.484375 C 78.859375 32.9375 79.535156 33.164062 80.890625 33.164062 L 81.117188 33.164062 L 81.117188 34.144531 L 75.171875 34.144531 L 75.171875 33.164062 L 75.472656 33.164062 C 76.375 33.089844 76.902344 33.011719 77.050781 32.789062 C 77.203125 32.636719 77.65625 31.65625 78.332031 30 L 86.457031 10.183594 L 87.511719 10.183594 L 95.5625 30.148438 C 96.164062 31.582031 96.617188 32.410156 96.917969 32.710938 C 97.144531 33.011719 97.671875 33.164062 98.421875 33.164062 L 98.796875 33.164062 L 98.796875 34.144531 L 90.296875 34.144531 L 90.296875 33.164062 L 90.597656 33.164062 C 92.027344 33.164062 92.777344 32.9375 92.777344 32.5625 C 92.777344 31.957031 92.554688 31.128906 92.101562 30.074219 L 90.824219 26.910156 Z M 81.417969 25.554688 L 90.21875 25.554688 L 85.855469 14.78125 Z M 81.417969 25.554688 "/>
<path style=" stroke:none;fill-rule:nonzero;fill:rgb(0%,12.156863%,27.058824%);fill-opacity:1;" d="M 99.476562 34.144531 L 99.476562 33.164062 L 99.777344 33.164062 C 101.054688 33.089844 101.808594 32.863281 102.035156 32.636719 C 102.261719 32.335938 102.410156 31.507812 102.410156 30.074219 L 102.410156 14.554688 C 102.410156 13.121094 102.261719 12.21875 102.035156 11.992188 C 101.808594 11.691406 101.054688 11.539062 99.777344 11.464844 L 99.476562 11.464844 L 99.476562 10.484375 L 106.851562 10.484375 L 109.257812 10.410156 L 110.386719 10.410156 C 114 10.410156 116.707031 11.390625 118.664062 13.347656 C 120.542969 15.308594 121.523438 18.09375 121.523438 21.785156 C 121.523438 25.628906 120.542969 28.566406 118.589844 30.828125 C 116.632812 33.011719 113.921875 34.144531 110.535156 34.144531 Z M 105.644531 11.539062 L 105.644531 30 C 105.644531 31.429688 105.796875 32.261719 106.097656 32.484375 C 106.625 32.863281 107.753906 33.089844 109.332031 33.089844 C 112.269531 33.089844 114.449219 32.183594 115.878906 30.375 C 117.308594 28.566406 118.0625 25.855469 118.0625 22.238281 C 118.0625 18.472656 117.308594 15.757812 115.730469 14.101562 C 114.148438 12.445312 111.589844 11.613281 108.128906 11.613281 Z M 105.644531 11.539062 "/>
<path style=" stroke:none;fill-rule:nonzero;fill:rgb(0%,12.156863%,27.058824%);fill-opacity:1;" d="M 132.285156 23.59375 L 127.015625 14.628906 C 125.886719 12.746094 125.285156 11.765625 125.136719 11.613281 C 124.984375 11.464844 124.457031 11.390625 123.554688 11.390625 L 123.253906 11.390625 L 123.253906 10.410156 L 132.207031 10.410156 L 132.207031 11.390625 L 131.90625 11.390625 C 130.402344 11.390625 129.726562 11.539062 129.648438 11.917969 C 129.648438 12.21875 130.027344 13.121094 130.929688 14.628906 L 135.21875 22.089844 L 139.734375 14.628906 C 140.636719 13.121094 141.085938 12.21875 141.085938 11.917969 C 141.085938 11.539062 140.335938 11.390625 138.90625 11.390625 L 138.605469 11.390625 L 138.605469 10.410156 L 144.847656 10.410156 L 144.847656 11.390625 L 144.546875 11.390625 C 143.570312 11.464844 142.96875 11.539062 142.816406 11.691406 C 142.667969 11.839844 142.066406 12.820312 140.9375 14.628906 L 135.519531 23.59375 L 135.519531 29.925781 C 135.519531 31.355469 135.59375 32.261719 135.820312 32.484375 C 136.046875 32.789062 136.796875 32.9375 138.078125 33.011719 L 138.378906 33.011719 L 138.378906 34.144531 L 129.347656 34.144531 L 129.347656 33.164062 L 129.648438 33.164062 C 130.929688 33.089844 131.679688 32.863281 131.90625 32.636719 C 132.132812 32.335938 132.207031 31.507812 132.207031 30.074219 Z M 132.285156 23.59375 "/>
<path style=" stroke:none;fill-rule:nonzero;fill:rgb(76.078431%,49.411765%,0%);fill-opacity:1;" d="M 82.019531 41.226562 L 84.726562 41.226562 L 84.726562 41.679688 L 84.652344 41.679688 C 84.351562 41.679688 84.199219 41.753906 84.125 41.828125 C 84.050781 41.902344 84.050781 42.128906 84.050781 42.507812 L 84.050781 45.371094 C 84.050781 46.125 84.125 46.726562 84.351562 47.027344 C 84.578125 47.328125 84.953125 47.554688 85.40625 47.554688 C 85.929688 47.554688 86.308594 47.40625 86.609375 47.027344 C 86.835938 46.652344 86.984375 46.125 86.984375 45.371094 L 86.984375 42.582031 C 86.984375 42.207031 86.984375 41.980469 86.910156 41.902344 C 86.835938 41.828125 86.683594 41.753906 86.382812 41.753906 L 86.308594 41.753906 L 86.308594 41.375 L 88.265625 41.375 L 88.265625 41.679688 L 88.1875 41.679688 C 87.886719 41.679688 87.738281 41.753906 87.664062 41.828125 C 87.585938 41.902344 87.585938 42.128906 87.585938 42.507812 L 87.585938 45.21875 C 87.585938 46.125 87.359375 46.878906 86.984375 47.328125 C 86.609375 47.78125 86.007812 48.007812 85.179688 48.007812 C 83.449219 48.007812 82.621094 47.101562 82.621094 45.371094 L 82.621094 42.65625 C 82.621094 42.28125 82.621094 42.054688 82.546875 41.902344 C 82.46875 41.828125 82.320312 41.753906 82.019531 41.753906 L 81.945312 41.753906 Z M 82.019531 41.226562 "/>
<path style=" stroke:none;fill-rule:nonzero;fill:rgb(76.078431%,49.411765%,0%);fill-opacity:1;" d="M 93.457031 47.855469 L 89.996094 42.882812 L 89.996094 46.5 C 89.996094 46.878906 89.996094 47.101562 90.070312 47.179688 C 90.144531 47.253906 90.296875 47.328125 90.597656 47.328125 L 90.671875 47.328125 L 90.671875 47.707031 L 88.714844 47.707031 L 88.714844 47.328125 L 88.789062 47.328125 C 89.09375 47.328125 89.242188 47.253906 89.316406 47.179688 C 89.394531 47.101562 89.394531 46.878906 89.394531 46.5 L 89.394531 42.507812 C 89.394531 42.128906 89.394531 41.902344 89.316406 41.828125 C 89.242188 41.753906 89.09375 41.679688 88.789062 41.679688 L 88.714844 41.679688 L 88.714844 41.300781 L 90.296875 41.300781 L 93.757812 46.273438 L 93.757812 42.582031 C 93.757812 42.207031 93.757812 41.980469 93.683594 41.902344 C 93.605469 41.828125 93.457031 41.753906 93.15625 41.753906 L 93.078125 41.753906 L 93.078125 41.375 L 95.035156 41.375 L 95.035156 41.679688 L 94.960938 41.679688 C 94.660156 41.679688 94.507812 41.753906 94.433594 41.828125 C 94.359375 41.902344 94.359375 42.128906 94.359375 42.507812 L 94.359375 47.855469 Z M 93.457031 47.855469 "/>
<path style=" stroke:none;fill-rule:nonzero;fill:rgb(76.078431%,49.411765%,0%);fill-opacity:1;" d="M 98.195312 47.78125 L 95.488281 47.78125 L 95.488281 47.40625 L 95.5625 47.40625 C 95.863281 47.40625 96.015625 47.328125 96.089844 47.253906 C 96.164062 47.179688 96.164062 46.953125 96.164062 46.574219 L 96.164062 42.582031 C 96.164062 42.207031 96.164062 41.980469 96.089844 41.902344 C 96.015625 41.828125 95.863281 41.753906 95.5625 41.753906 L 95.488281 41.753906 L 95.488281 41.375 L 98.195312 41.375 L 98.195312 41.679688 L 98.121094 41.679688 C 97.820312 41.679688 97.671875 41.753906 97.59375 41.828125 C 97.519531 41.902344 97.519531 42.128906 97.519531 42.507812 L 97.519531 46.5 C 97.519531 46.878906 97.519531 47.101562 97.59375 47.179688 C 97.671875 47.253906 97.820312 47.328125 98.121094 47.328125 L 98.195312 47.328125 Z M 98.195312 47.78125 "/>
<path style=" stroke:none;fill-rule:nonzero;fill:rgb(76.078431%,49.411765%,0%);fill-opacity:1;" d="M 101.507812 47.855469 L 99.25 42.507812 C 99.023438 42.054688 98.949219 41.753906 98.875 41.753906 C 98.875 41.753906 98.722656 41.679688 98.421875 41.679688 L 98.347656 41.679688 L 98.347656 41.300781 L 101.054688 41.300781 L 101.054688 41.679688 L 100.980469 41.679688 C 100.90625 41.679688 100.753906 41.679688 100.679688 41.679688 C 100.605469 41.679688 100.53125 41.753906 100.53125 41.828125 C 100.53125 41.902344 100.605469 42.128906 100.753906 42.507812 L 102.183594 45.972656 L 103.539062 42.507812 C 103.539062 42.429688 103.613281 42.28125 103.691406 42.128906 C 103.765625 41.980469 103.765625 41.828125 103.765625 41.828125 C 103.765625 41.753906 103.691406 41.679688 103.464844 41.679688 L 103.164062 41.679688 L 103.164062 41.300781 L 104.96875 41.300781 L 104.96875 41.679688 L 104.894531 41.679688 C 104.820312 41.679688 104.742188 41.679688 104.742188 41.679688 C 104.59375 41.679688 104.515625 41.753906 104.441406 41.828125 C 104.367188 41.902344 104.292969 42.128906 104.140625 42.582031 L 101.960938 47.933594 Z M 101.507812 47.855469 "/>
<path style=" stroke:none;fill-rule:nonzero;fill:rgb(76.078431%,49.411765%,0%);fill-opacity:1;" d="M 109.933594 47.78125 L 105.121094 47.78125 L 105.121094 47.40625 L 105.195312 47.40625 C 105.496094 47.40625 105.644531 47.328125 105.722656 47.253906 C 105.796875 47.179688 105.796875 46.953125 105.796875 46.574219 L 105.796875 42.582031 C 105.796875 42.207031 105.796875 41.980469 105.722656 41.902344 C 105.644531 41.828125 105.496094 41.753906 105.195312 41.753906 L 105.121094 41.753906 L 105.121094 41.375 L 109.710938 41.375 L 109.710938 42.429688 L 109.105469 42.429688 L 109.105469 42.355469 C 109.105469 42.207031 109.105469 42.128906 109.105469 42.054688 C 109.105469 41.902344 109.105469 41.753906 108.957031 41.753906 C 108.882812 41.679688 108.730469 41.679688 108.429688 41.679688 L 107.074219 41.679688 L 107.074219 44.164062 L 107.980469 44.164062 C 108.28125 44.164062 108.503906 44.164062 108.582031 44.164062 C 108.65625 44.164062 108.65625 44.015625 108.65625 43.789062 L 108.65625 43.710938 L 109.105469 43.710938 L 109.105469 45.144531 L 108.65625 45.144531 L 108.65625 45.070312 C 108.65625 44.84375 108.582031 44.691406 108.503906 44.691406 C 108.429688 44.691406 108.28125 44.617188 107.980469 44.617188 L 107.074219 44.617188 L 107.074219 46.574219 C 107.074219 47.027344 107.152344 47.328125 107.226562 47.328125 C 107.300781 47.328125 107.527344 47.328125 107.902344 47.328125 L 108.429688 47.328125 C 108.882812 47.328125 109.105469 47.328125 109.105469 47.253906 C 109.183594 47.179688 109.183594 47.027344 109.183594 46.652344 L 109.183594 46.574219 L 109.785156 46.574219 Z M 109.933594 47.78125 "/>
<path style=" stroke:none;fill-rule:nonzero;fill:rgb(76.078431%,49.411765%,0%);fill-opacity:1;" d="M 112.34375 44.917969 L 112.34375 46.5 C 112.34375 46.878906 112.34375 47.101562 112.417969 47.179688 C 112.492188 47.253906 112.644531 47.328125 112.871094 47.328125 L 112.945312 47.328125 L 112.945312 47.707031 L 110.386719 47.707031 L 110.386719 47.328125 L 110.460938 47.328125 C 110.761719 47.328125 110.914062 47.253906 110.988281 47.179688 C 111.0625 47.101562 111.0625 46.878906 111.0625 46.5 L 111.0625 42.507812 C 111.0625 42.128906 111.0625 41.902344 110.988281 41.828125 C 110.914062 41.753906 110.761719 41.679688 110.460938 41.679688 L 110.386719 41.679688 L 110.386719 41.300781 L 113.320312 41.300781 C 114.601562 41.300781 115.277344 41.828125 115.277344 42.960938 C 115.277344 43.410156 115.203125 43.789062 114.976562 44.089844 C 114.75 44.390625 114.449219 44.617188 114.074219 44.84375 L 115.277344 46.652344 C 115.578125 47.101562 115.804688 47.328125 115.878906 47.40625 C 115.953125 47.480469 116.105469 47.480469 116.332031 47.554688 L 116.40625 47.554688 L 116.40625 47.933594 L 114.601562 47.933594 L 112.871094 45.070312 Z M 112.34375 44.464844 L 112.570312 44.464844 C 113.019531 44.464844 113.394531 44.316406 113.621094 44.089844 C 113.847656 43.789062 114 43.410156 114 42.960938 C 114 42.128906 113.621094 41.679688 112.792969 41.679688 L 112.34375 41.679688 Z M 112.34375 44.464844 "/>
<path style=" stroke:none;fill-rule:nonzero;fill:rgb(76.078431%,49.411765%,0%);fill-opacity:1;" d="M 116.933594 47.707031 L 116.933594 46.347656 L 117.535156 46.347656 L 117.535156 46.425781 C 117.535156 46.800781 117.609375 47.027344 117.761719 47.179688 C 117.988281 47.40625 118.363281 47.480469 118.664062 47.480469 C 118.964844 47.480469 119.265625 47.40625 119.492188 47.179688 C 119.71875 46.953125 119.792969 46.652344 119.792969 46.347656 C 119.792969 46.046875 119.71875 45.820312 119.640625 45.671875 C 119.492188 45.519531 119.265625 45.292969 118.964844 45.144531 L 118.511719 44.917969 C 117.460938 44.316406 116.933594 43.636719 116.933594 42.960938 C 116.933594 42.429688 117.160156 41.980469 117.535156 41.601562 C 117.910156 41.300781 118.4375 41.074219 119.039062 41.074219 C 119.566406 41.074219 120.09375 41.152344 120.769531 41.375 L 120.769531 42.734375 L 120.167969 42.734375 L 120.167969 42.65625 C 120.167969 42.28125 120.09375 41.980469 120.019531 41.902344 C 119.792969 41.679688 119.566406 41.601562 119.191406 41.601562 C 118.890625 41.601562 118.664062 41.679688 118.511719 41.902344 C 118.363281 42.128906 118.210938 42.355469 118.210938 42.65625 C 118.210938 42.882812 118.289062 43.035156 118.363281 43.261719 C 118.511719 43.410156 118.738281 43.5625 119.039062 43.789062 L 119.492188 44.015625 C 120.09375 44.390625 120.542969 44.691406 120.769531 44.992188 C 120.996094 45.292969 121.148438 45.671875 121.148438 46.046875 C 121.148438 46.652344 120.921875 47.101562 120.46875 47.480469 C 120.019531 47.855469 119.492188 48.007812 118.738281 48.007812 C 118.136719 47.933594 117.535156 47.855469 116.933594 47.707031 "/>
<path style=" stroke:none;fill-rule:nonzero;fill:rgb(76.078431%,49.411765%,0%);fill-opacity:1;" d="M 124.15625 47.78125 L 121.449219 47.78125 L 121.449219 47.40625 L 121.523438 47.40625 C 121.824219 47.40625 121.972656 47.328125 122.050781 47.253906 C 122.125 47.179688 122.125 46.953125 122.125 46.574219 L 122.125 42.582031 C 122.125 42.207031 122.125 41.980469 122.050781 41.902344 C 121.972656 41.828125 121.824219 41.753906 121.523438 41.753906 L 121.449219 41.753906 L 121.449219 41.375 L 124.15625 41.375 L 124.15625 41.679688 L 124.082031 41.679688 C 123.78125 41.679688 123.628906 41.753906 123.554688 41.828125 C 123.480469 41.902344 123.480469 42.128906 123.480469 42.507812 L 123.480469 46.5 C 123.480469 46.878906 123.480469 47.101562 123.554688 47.179688 C 123.628906 47.253906 123.78125 47.328125 124.082031 47.328125 L 124.15625 47.328125 Z M 124.15625 47.78125 "/>
<path style=" stroke:none;fill-rule:nonzero;fill:rgb(76.078431%,49.411765%,0%);fill-opacity:1;" d="M 124.53125 47.78125 L 124.53125 47.40625 L 124.609375 47.40625 C 124.910156 47.40625 125.058594 47.328125 125.136719 47.253906 C 125.210938 47.179688 125.210938 46.953125 125.210938 46.574219 L 125.210938 42.582031 C 125.210938 42.207031 125.210938 41.980469 125.136719 41.902344 C 125.058594 41.828125 124.910156 41.753906 124.609375 41.753906 L 124.53125 41.753906 L 124.53125 41.375 L 127.769531 41.375 C 128.746094 41.375 129.5 41.679688 130.027344 42.207031 C 130.550781 42.734375 130.855469 43.5625 130.855469 44.542969 C 130.855469 45.597656 130.550781 46.425781 130.027344 47.027344 C 129.5 47.628906 128.746094 47.933594 127.84375 47.933594 Z M 126.566406 41.679688 L 126.566406 46.5 C 126.566406 46.878906 126.640625 47.101562 126.714844 47.179688 C 126.789062 47.253906 127.089844 47.328125 127.46875 47.328125 C 128.144531 47.328125 128.671875 47.101562 128.972656 46.574219 C 129.273438 46.046875 129.5 45.371094 129.5 44.390625 C 129.5 43.410156 129.273438 42.734375 128.898438 42.28125 C 128.519531 41.902344 127.84375 41.679688 126.941406 41.679688 Z M 126.566406 41.679688 "/>
<path style=" stroke:none;fill-rule:nonzero;fill:rgb(76.078431%,49.411765%,0%);fill-opacity:1;" d="M 133.035156 45.820312 L 132.734375 46.5 C 132.585938 46.878906 132.507812 47.101562 132.507812 47.179688 C 132.507812 47.253906 132.585938 47.328125 132.808594 47.328125 C 132.808594 47.328125 132.886719 47.328125 132.960938 47.328125 L 133.035156 47.328125 L 133.035156 47.707031 L 131.378906 47.707031 L 131.378906 47.328125 L 131.457031 47.328125 C 131.679688 47.328125 131.832031 47.253906 131.90625 47.179688 C 131.980469 47.101562 132.058594 46.878906 132.285156 46.425781 L 134.617188 41.074219 L 135.066406 41.074219 L 137.398438 46.425781 C 137.625 46.878906 137.777344 47.101562 137.777344 47.179688 C 137.851562 47.253906 138.003906 47.253906 138.226562 47.328125 L 138.304688 47.328125 L 138.304688 47.707031 L 135.667969 47.707031 L 135.667969 47.328125 L 135.746094 47.328125 C 136.121094 47.328125 136.269531 47.253906 136.269531 47.179688 C 136.269531 47.101562 136.195312 46.878906 136.046875 46.5 L 135.746094 45.820312 Z M 133.1875 45.371094 L 135.445312 45.371094 L 134.316406 42.808594 Z M 133.1875 45.371094 "/>
<path style=" stroke:none;fill-rule:nonzero;fill:rgb(76.078431%,49.411765%,0%);fill-opacity:1;" d="M 138.378906 47.78125 L 138.378906 47.40625 L 138.453125 47.40625 C 138.753906 47.40625 138.90625 47.328125 138.980469 47.253906 C 139.054688 47.179688 139.054688 46.953125 139.054688 46.574219 L 139.054688 42.582031 C 139.054688 42.207031 139.054688 41.980469 138.980469 41.902344 C 138.90625 41.828125 138.753906 41.753906 138.453125 41.753906 L 138.378906 41.753906 L 138.378906 41.375 L 141.613281 41.375 C 142.59375 41.375 143.34375 41.679688 143.871094 42.207031 C 144.398438 42.734375 144.699219 43.5625 144.699219 44.542969 C 144.699219 45.597656 144.398438 46.425781 143.871094 47.027344 C 143.34375 47.628906 142.59375 47.933594 141.6875 47.933594 Z M 140.410156 41.679688 L 140.410156 46.5 C 140.410156 46.878906 140.484375 47.101562 140.558594 47.179688 C 140.636719 47.253906 140.9375 47.328125 141.3125 47.328125 C 141.988281 47.328125 142.515625 47.101562 142.816406 46.574219 C 143.117188 46.046875 143.34375 45.371094 143.34375 44.390625 C 143.34375 43.410156 143.117188 42.734375 142.742188 42.28125 C 142.367188 41.902344 141.6875 41.679688 140.785156 41.679688 Z M 140.410156 41.679688 "/>
<path style=" stroke:none;fill-rule:nonzero;fill:rgb(76.078431%,49.411765%,0%);fill-opacity:1;" d="M 91.347656 56.070312 L 91.046875 56.746094 C 90.898438 57.125 90.824219 57.351562 90.824219 57.425781 C 90.824219 57.5 90.898438 57.578125 91.125 57.578125 C 91.125 57.578125 91.199219 57.578125 91.273438 57.578125 L 91.347656 57.578125 L 91.347656 57.953125 L 89.695312 57.953125 L 89.695312 57.578125 L 89.769531 57.578125 C 89.996094 57.578125 90.144531 57.5 90.21875 57.425781 C 90.296875 57.351562 90.371094 57.125 90.597656 56.671875 L 92.929688 51.324219 L 93.382812 51.324219 L 95.714844 56.671875 C 95.9375 57.125 96.089844 57.351562 96.089844 57.425781 C 96.164062 57.5 96.316406 57.5 96.542969 57.578125 L 96.617188 57.578125 L 96.617188 57.953125 L 93.984375 57.953125 L 93.984375 57.578125 L 94.058594 57.578125 C 94.433594 57.578125 94.585938 57.5 94.585938 57.425781 C 94.585938 57.351562 94.507812 57.125 94.359375 56.746094 L 94.058594 56.070312 Z M 91.574219 55.691406 L 93.832031 55.691406 L 92.703125 53.128906 Z M 91.574219 55.691406 "/>
<path style=" stroke:none;fill-rule:nonzero;fill:rgb(76.078431%,49.411765%,0%);fill-opacity:1;" d="M 96.691406 51.546875 L 99.402344 51.546875 L 99.402344 51.925781 L 99.324219 51.925781 C 99.023438 51.925781 98.875 52 98.796875 52.074219 C 98.722656 52.152344 98.722656 52.378906 98.722656 52.753906 L 98.722656 55.617188 C 98.722656 56.371094 98.796875 56.972656 99.023438 57.273438 C 99.25 57.578125 99.625 57.800781 100.078125 57.800781 C 100.605469 57.800781 100.980469 57.652344 101.28125 57.273438 C 101.507812 56.898438 101.65625 56.371094 101.65625 55.617188 L 101.65625 52.828125 C 101.65625 52.453125 101.65625 52.226562 101.582031 52.152344 C 101.507812 52.074219 101.355469 52 101.054688 52 L 100.980469 52 L 100.980469 51.625 L 102.9375 51.625 L 102.9375 52 L 102.863281 52 C 102.5625 52 102.410156 52.074219 102.335938 52.152344 C 102.261719 52.226562 102.261719 52.453125 102.261719 52.828125 L 102.261719 55.542969 C 102.261719 56.445312 102.035156 57.199219 101.65625 57.652344 C 101.28125 58.105469 100.679688 58.328125 99.851562 58.328125 C 98.121094 58.328125 97.292969 57.425781 97.292969 55.691406 L 97.292969 52.980469 C 97.292969 52.601562 97.292969 52.378906 97.21875 52.226562 C 97.144531 52.152344 96.992188 52.074219 96.691406 52.074219 L 96.617188 52.074219 Z M 96.691406 51.546875 "/>
<path style=" stroke:none;fill-rule:nonzero;fill:rgb(76.078431%,49.411765%,0%);fill-opacity:1;" d="M 105.570312 52 L 104.515625 52 C 104.214844 52 104.066406 52 103.992188 52.074219 C 103.914062 52.152344 103.839844 52.378906 103.839844 52.753906 L 103.839844 52.90625 L 103.238281 52.90625 L 103.238281 51.546875 L 109.105469 51.546875 L 109.105469 52.90625 L 108.503906 52.90625 L 108.503906 52.753906 C 108.503906 52.378906 108.429688 52.152344 108.355469 52.074219 C 108.28125 52 108.128906 52 107.828125 52 L 106.773438 52 L 106.773438 56.824219 C 106.773438 57.273438 106.851562 57.5 106.851562 57.578125 C 106.925781 57.652344 107.074219 57.652344 107.453125 57.726562 L 107.527344 57.726562 L 107.527344 58.105469 L 104.667969 58.105469 L 104.667969 57.726562 L 104.742188 57.726562 C 105.121094 57.726562 105.269531 57.652344 105.34375 57.578125 C 105.421875 57.5 105.421875 57.273438 105.421875 56.898438 Z M 105.570312 52 "/>
<path style=" stroke:none;fill-rule:nonzero;fill:rgb(76.078431%,49.411765%,0%);fill-opacity:1;" d="M 112.871094 58.253906 C 111.890625 58.253906 111.0625 57.953125 110.535156 57.351562 C 109.933594 56.746094 109.710938 55.917969 109.710938 54.863281 C 109.710938 53.808594 110.011719 52.980469 110.535156 52.378906 C 111.140625 51.773438 111.890625 51.472656 112.871094 51.472656 C 113.847656 51.472656 114.601562 51.773438 115.203125 52.378906 C 115.804688 52.980469 116.03125 53.808594 116.03125 54.863281 C 116.03125 55.917969 115.730469 56.746094 115.203125 57.351562 C 114.601562 57.953125 113.847656 58.253906 112.871094 58.253906 M 112.871094 57.800781 C 113.472656 57.800781 113.921875 57.578125 114.222656 57.046875 C 114.523438 56.519531 114.675781 55.769531 114.675781 54.789062 C 114.675781 53.808594 114.523438 53.054688 114.222656 52.527344 C 113.921875 52 113.472656 51.773438 112.871094 51.773438 C 112.269531 51.773438 111.816406 52 111.515625 52.527344 C 111.214844 53.054688 111.0625 53.808594 111.0625 54.789062 C 111.0625 55.769531 111.214844 56.519531 111.515625 57.046875 C 111.816406 57.578125 112.269531 57.800781 112.871094 57.800781 M 113.019531 49.664062 L 114.148438 49.664062 L 112.570312 50.945312 L 112.042969 50.945312 Z M 113.019531 49.664062 "/>
<path style=" stroke:none;fill-rule:nonzero;fill:rgb(76.078431%,49.411765%,0%);fill-opacity:1;" d="M 121.371094 58.179688 L 117.910156 53.207031 L 117.910156 56.824219 C 117.910156 57.199219 117.910156 57.425781 117.988281 57.5 C 118.0625 57.578125 118.210938 57.652344 118.511719 57.652344 L 118.589844 57.652344 L 118.589844 58.027344 L 116.632812 58.027344 L 116.632812 57.652344 L 116.707031 57.652344 C 117.007812 57.652344 117.160156 57.578125 117.234375 57.5 C 117.308594 57.425781 117.308594 57.199219 117.308594 56.824219 L 117.308594 52.828125 C 117.308594 52.453125 117.308594 52.226562 117.234375 52.152344 C 117.160156 52.074219 117.007812 52 116.707031 52 L 116.632812 52 L 116.632812 51.625 L 118.210938 51.625 L 121.671875 56.597656 L 121.671875 52.90625 C 121.671875 52.527344 121.671875 52.300781 121.597656 52.226562 C 121.523438 52.152344 121.371094 52.074219 121.070312 52.074219 L 120.996094 52.074219 L 120.996094 51.699219 L 122.953125 51.699219 L 122.953125 52.074219 L 122.878906 52.074219 C 122.578125 52.074219 122.425781 52.152344 122.351562 52.226562 C 122.277344 52.300781 122.277344 52.527344 122.277344 52.90625 L 122.277344 58.253906 Z M 121.371094 58.179688 "/>
<path style=" stroke:none;fill-rule:nonzero;fill:rgb(76.078431%,49.411765%,0%);fill-opacity:1;" d="M 126.789062 58.253906 C 125.8125 58.253906 124.984375 57.953125 124.457031 57.351562 C 123.855469 56.746094 123.628906 55.917969 123.628906 54.863281 C 123.628906 53.808594 123.929688 52.980469 124.457031 52.378906 C 125.058594 51.773438 125.8125 51.472656 126.789062 51.472656 C 127.769531 51.472656 128.519531 51.773438 129.121094 52.378906 C 129.726562 52.980469 129.949219 53.808594 129.949219 54.863281 C 129.949219 55.917969 129.648438 56.746094 129.121094 57.351562 C 128.597656 57.953125 127.769531 58.253906 126.789062 58.253906 M 126.789062 57.800781 C 127.390625 57.800781 127.84375 57.578125 128.144531 57.046875 C 128.445312 56.519531 128.597656 55.769531 128.597656 54.789062 C 128.597656 53.808594 128.445312 53.054688 128.144531 52.527344 C 127.84375 52 127.390625 51.773438 126.789062 51.773438 C 126.1875 51.773438 125.738281 52 125.4375 52.527344 C 125.136719 53.054688 124.984375 53.808594 124.984375 54.789062 C 124.984375 55.769531 125.136719 56.519531 125.4375 57.046875 C 125.738281 57.578125 126.1875 57.800781 126.789062 57.800781 "/>
<path style=" stroke:none;fill-rule:nonzero;fill:rgb(76.078431%,49.411765%,0%);fill-opacity:1;" d="M 130.476562 51.546875 L 132.585938 51.546875 L 134.316406 55.769531 L 136.121094 51.546875 L 138.003906 51.546875 L 138.003906 51.925781 L 137.925781 51.925781 C 137.625 51.925781 137.476562 52 137.398438 52.074219 C 137.324219 52.152344 137.324219 52.378906 137.324219 52.753906 L 137.324219 56.746094 C 137.324219 57.125 137.324219 57.351562 137.398438 57.425781 C 137.476562 57.5 137.625 57.578125 137.925781 57.578125 L 138.003906 57.578125 L 138.003906 57.953125 L 135.519531 57.953125 L 135.519531 57.578125 L 135.59375 57.578125 C 135.820312 57.578125 135.96875 57.5 136.046875 57.425781 C 136.121094 57.351562 136.121094 57.125 136.121094 56.671875 L 136.121094 52.753906 L 134.164062 57.199219 L 133.714844 57.199219 L 131.757812 52.527344 L 131.757812 56.671875 C 131.757812 57.046875 131.757812 57.273438 131.832031 57.351562 C 131.90625 57.425781 132.058594 57.5 132.285156 57.5 L 132.359375 57.5 L 132.359375 57.878906 L 130.476562 57.878906 L 130.476562 57.5 L 130.550781 57.5 C 130.855469 57.5 131.003906 57.425781 131.078125 57.351562 C 131.15625 57.273438 131.15625 57.046875 131.15625 56.671875 L 131.15625 52.679688 C 131.15625 52.300781 131.15625 52.074219 131.078125 52 C 131.003906 51.925781 130.855469 51.851562 130.550781 51.851562 L 130.476562 51.851562 Z M 130.476562 51.546875 "/>
<path style=" stroke:none;fill-rule:nonzero;fill:rgb(76.078431%,49.411765%,0%);fill-opacity:1;" d="M 139.957031 56.070312 L 139.65625 56.746094 C 139.507812 57.125 139.433594 57.351562 139.433594 57.425781 C 139.433594 57.5 139.507812 57.578125 139.734375 57.578125 C 139.734375 57.578125 139.808594 57.578125 139.882812 57.578125 L 139.957031 57.578125 L 139.957031 57.953125 L 138.304688 57.953125 L 138.304688 57.578125 L 138.378906 57.578125 C 138.605469 57.578125 138.753906 57.5 138.828125 57.425781 C 138.90625 57.351562 138.980469 57.125 139.207031 56.671875 L 141.539062 51.324219 L 141.988281 51.324219 L 144.324219 56.671875 C 144.546875 57.125 144.699219 57.351562 144.699219 57.425781 C 144.773438 57.5 144.925781 57.5 145.152344 57.578125 L 145.226562 57.578125 L 145.226562 57.953125 L 142.59375 57.953125 L 142.59375 57.578125 L 142.667969 57.578125 C 143.042969 57.578125 143.195312 57.5 143.195312 57.425781 C 143.195312 57.351562 143.117188 57.125 142.96875 56.746094 L 142.667969 56.070312 Z M 140.109375 55.691406 L 142.367188 55.691406 L 141.238281 53.128906 Z M 140.109375 55.691406 "/>
<path style=" stroke:none;fill-rule:nonzero;fill:rgb(76.078431%,49.411765%,0%);fill-opacity:1;" d="M 84.5 68.351562 L 84.5 67.972656 L 84.578125 67.972656 C 84.878906 67.972656 85.027344 67.898438 85.105469 67.824219 C 85.179688 67.746094 85.179688 67.523438 85.179688 67.144531 L 85.179688 63.152344 C 85.179688 62.773438 85.179688 62.550781 85.105469 62.472656 C 85.027344 62.398438 84.878906 62.324219 84.578125 62.324219 L 84.5 62.324219 L 84.5 61.945312 L 87.738281 61.945312 C 88.714844 61.945312 89.46875 62.246094 89.996094 62.773438 C 90.523438 63.300781 90.824219 64.132812 90.824219 65.109375 C 90.824219 66.164062 90.523438 66.996094 89.996094 67.597656 C 89.46875 68.199219 88.714844 68.5 87.8125 68.5 L 84.5 68.5 C 84.5 68.5 84.5 68.351562 84.5 68.351562 Z M 86.535156 62.246094 L 86.535156 67.070312 C 86.535156 67.445312 86.609375 67.671875 86.683594 67.746094 C 86.757812 67.824219 87.058594 67.898438 87.4375 67.898438 C 88.113281 67.898438 88.640625 67.671875 88.941406 67.144531 C 89.242188 66.617188 89.46875 65.941406 89.46875 64.960938 C 89.46875 63.980469 89.242188 63.300781 88.867188 62.851562 C 88.488281 62.472656 87.8125 62.246094 86.910156 62.246094 Z M 86.535156 62.246094 "/>
<path style=" stroke:none;fill-rule:nonzero;fill:rgb(76.078431%,49.411765%,0%);fill-opacity:1;" d="M 96.242188 68.351562 L 91.425781 68.351562 L 91.425781 67.972656 L 91.5 67.972656 C 91.800781 67.972656 91.953125 67.898438 92.027344 67.824219 C 92.101562 67.746094 92.101562 67.523438 92.101562 67.144531 L 92.101562 63.152344 C 92.101562 62.773438 92.101562 62.550781 92.027344 62.472656 C 91.953125 62.398438 91.800781 62.324219 91.5 62.324219 L 91.425781 62.324219 L 91.425781 61.945312 L 96.015625 61.945312 L 96.015625 63.152344 L 95.414062 63.152344 L 95.414062 63.078125 C 95.414062 62.925781 95.414062 62.851562 95.414062 62.773438 C 95.414062 62.625 95.414062 62.472656 95.261719 62.472656 C 95.1875 62.398438 95.035156 62.398438 94.734375 62.398438 L 93.382812 62.398438 L 93.382812 64.886719 L 94.285156 64.886719 C 94.585938 64.886719 94.8125 64.886719 94.886719 64.886719 C 94.960938 64.886719 94.960938 64.734375 94.960938 64.507812 L 94.960938 64.433594 L 95.414062 64.433594 L 95.414062 65.863281 L 94.960938 65.863281 L 94.960938 65.789062 C 94.960938 65.5625 94.886719 65.414062 94.8125 65.414062 C 94.734375 65.414062 94.585938 65.335938 94.285156 65.335938 L 93.382812 65.335938 L 93.382812 67.296875 C 93.382812 67.746094 93.457031 68.050781 93.53125 68.050781 C 93.605469 68.050781 93.832031 68.050781 94.207031 68.050781 L 94.734375 68.050781 C 95.1875 68.050781 95.414062 68.050781 95.414062 67.972656 C 95.488281 67.898438 95.488281 67.746094 95.488281 67.371094 L 95.488281 67.296875 L 96.089844 67.296875 Z M 96.242188 68.351562 "/>
<path style=" stroke:none;fill-rule:nonzero;fill:rgb(76.078431%,49.411765%,0%);fill-opacity:1;" d="M 101.65625 65.5625 L 100.226562 63.152344 C 100.078125 62.851562 99.925781 62.699219 99.925781 62.625 C 99.851562 62.472656 99.777344 62.324219 99.703125 62.324219 C 99.625 62.324219 99.476562 62.246094 99.25 62.246094 L 99.175781 62.246094 L 99.175781 61.871094 L 101.882812 61.871094 L 101.882812 62.246094 L 101.808594 62.246094 C 101.507812 62.246094 101.28125 62.324219 101.28125 62.398438 C 101.28125 62.472656 101.433594 62.773438 101.65625 63.152344 L 102.710938 64.960938 L 103.839844 63.152344 C 104.066406 62.773438 104.214844 62.472656 104.214844 62.398438 C 104.214844 62.324219 104.066406 62.246094 103.839844 62.246094 L 103.765625 62.246094 L 103.765625 61.871094 L 105.496094 61.871094 L 105.496094 62.246094 L 105.421875 62.246094 C 105.195312 62.246094 105.042969 62.324219 104.96875 62.324219 C 104.96875 62.324219 104.742188 62.625 104.441406 63.152344 L 103.011719 65.5625 L 103.011719 67.144531 C 103.011719 67.523438 103.011719 67.746094 103.085938 67.824219 C 103.164062 67.898438 103.3125 67.972656 103.613281 67.972656 L 103.691406 67.972656 L 103.691406 68.351562 L 100.980469 68.351562 L 100.980469 67.972656 L 101.054688 67.972656 C 101.355469 67.972656 101.507812 67.898438 101.582031 67.824219 C 101.65625 67.746094 101.65625 67.523438 101.65625 67.144531 Z M 101.65625 65.5625 "/>
<path style=" stroke:none;fill-rule:nonzero;fill:rgb(76.078431%,49.411765%,0%);fill-opacity:1;" d="M 105.570312 61.871094 L 108.28125 61.871094 L 108.28125 62.246094 L 108.203125 62.246094 C 107.902344 62.246094 107.753906 62.324219 107.679688 62.398438 C 107.601562 62.472656 107.601562 62.699219 107.601562 63.078125 L 107.601562 65.941406 C 107.601562 66.691406 107.679688 67.296875 107.902344 67.597656 C 108.128906 67.898438 108.503906 68.125 108.957031 68.125 C 109.484375 68.125 109.859375 67.972656 110.160156 67.597656 C 110.460938 67.21875 110.535156 66.691406 110.535156 65.941406 L 110.535156 63.152344 C 110.535156 62.773438 110.535156 62.550781 110.460938 62.472656 C 110.386719 62.398438 110.234375 62.324219 109.933594 62.324219 L 109.859375 62.324219 L 109.859375 61.945312 L 111.816406 61.945312 L 111.816406 62.324219 L 111.742188 62.324219 C 111.441406 62.324219 111.289062 62.398438 111.214844 62.472656 C 111.140625 62.550781 111.140625 62.773438 111.140625 63.152344 L 111.140625 65.863281 C 111.140625 66.769531 110.914062 67.523438 110.535156 67.972656 C 110.160156 68.425781 109.558594 68.652344 108.730469 68.652344 C 107 68.652344 106.171875 67.746094 106.171875 66.015625 L 106.171875 63.300781 C 106.171875 62.925781 106.171875 62.699219 106.097656 62.550781 C 106.023438 62.472656 105.871094 62.398438 105.570312 62.398438 L 105.496094 62.398438 Z M 105.570312 61.871094 "/>
<path style=" stroke:none;fill-rule:nonzero;fill:rgb(76.078431%,49.411765%,0%);fill-opacity:1;" d="M 117.761719 68.125 C 117.082031 68.425781 116.40625 68.578125 115.652344 68.578125 C 114.601562 68.578125 113.773438 68.277344 113.171875 67.671875 C 112.570312 67.070312 112.269531 66.242188 112.269531 65.109375 C 112.269531 64.054688 112.570312 63.152344 113.171875 62.550781 C 113.773438 61.945312 114.601562 61.644531 115.652344 61.644531 C 116.332031 61.644531 117.007812 61.71875 117.683594 61.945312 L 117.683594 63.300781 L 117.082031 63.300781 L 117.082031 63.226562 C 117.082031 62.851562 117.007812 62.625 116.933594 62.472656 C 116.632812 62.246094 116.253906 62.097656 115.730469 62.097656 C 115.128906 62.097656 114.601562 62.324219 114.300781 62.851562 C 114 63.378906 113.773438 64.132812 113.773438 65.035156 C 113.773438 66.015625 114 66.769531 114.375 67.21875 C 114.75 67.671875 115.351562 67.972656 116.105469 67.972656 C 116.632812 67.972656 117.234375 67.824219 117.910156 67.523438 Z M 117.761719 68.125 "/>
<path style=" stroke:none;fill-rule:nonzero;fill:rgb(76.078431%,49.411765%,0%);fill-opacity:1;" d="M 119.867188 66.390625 L 119.566406 67.070312 C 119.417969 67.445312 119.339844 67.671875 119.339844 67.746094 C 119.339844 67.824219 119.417969 67.898438 119.640625 67.898438 C 119.640625 67.898438 119.71875 67.898438 119.792969 67.898438 L 119.867188 67.898438 L 119.867188 68.277344 L 118.210938 68.277344 L 118.210938 67.898438 L 118.289062 67.898438 C 118.511719 67.898438 118.664062 67.824219 118.738281 67.746094 C 118.8125 67.671875 118.890625 67.445312 119.113281 66.996094 L 121.449219 61.644531 L 121.898438 61.644531 L 124.230469 66.996094 C 124.457031 67.445312 124.609375 67.671875 124.609375 67.746094 C 124.683594 67.824219 124.832031 67.824219 125.058594 67.898438 L 125.136719 67.898438 L 125.136719 68.277344 L 122.5 68.277344 L 122.5 67.898438 L 122.578125 67.898438 C 122.953125 67.898438 123.101562 67.824219 123.101562 67.746094 C 123.101562 67.671875 123.027344 67.445312 122.878906 67.070312 L 122.578125 66.390625 Z M 120.09375 65.941406 L 122.351562 65.941406 L 121.222656 63.378906 Z M 120.09375 65.941406 "/>
<path style=" stroke:none;fill-rule:nonzero;fill:rgb(76.078431%,49.411765%,0%);fill-opacity:1;" d="M 127.542969 62.246094 L 126.488281 62.246094 C 126.1875 62.246094 126.039062 62.246094 125.960938 62.324219 C 125.886719 62.398438 125.8125 62.625 125.8125 63 L 125.8125 63.152344 L 125.210938 63.152344 L 125.210938 61.796875 L 131.078125 61.796875 L 131.078125 63.152344 L 130.476562 63.152344 L 130.476562 63 C 130.476562 62.625 130.402344 62.398438 130.328125 62.324219 C 130.25 62.246094 130.101562 62.246094 129.800781 62.246094 L 128.898438 62.246094 L 128.898438 67.070312 C 128.898438 67.523438 128.972656 67.746094 128.972656 67.824219 C 129.046875 67.898438 129.199219 67.898438 129.574219 67.972656 L 129.648438 67.972656 L 129.648438 68.351562 L 126.789062 68.351562 L 126.789062 67.972656 L 126.867188 67.972656 C 127.242188 67.972656 127.390625 67.898438 127.46875 67.824219 C 127.542969 67.746094 127.542969 67.523438 127.542969 67.144531 Z M 127.542969 62.246094 "/>
<path style=" stroke:none;fill-rule:nonzero;fill:rgb(76.078431%,49.411765%,0%);fill-opacity:1;" d="M 133.035156 66.390625 L 132.734375 67.070312 C 132.585938 67.445312 132.507812 67.671875 132.507812 67.746094 C 132.507812 67.824219 132.585938 67.898438 132.808594 67.898438 C 132.808594 67.898438 132.886719 67.898438 132.960938 67.898438 L 133.035156 67.898438 L 133.035156 68.277344 L 131.378906 68.277344 L 131.378906 67.898438 L 131.457031 67.898438 C 131.679688 67.898438 131.832031 67.824219 131.90625 67.746094 C 131.980469 67.671875 132.058594 67.445312 132.285156 66.996094 L 134.617188 61.644531 L 135.066406 61.644531 L 137.398438 66.996094 C 137.625 67.445312 137.777344 67.671875 137.777344 67.746094 C 137.777344 67.824219 138.003906 67.824219 138.226562 67.898438 L 138.304688 67.898438 L 138.304688 68.277344 L 135.667969 68.277344 L 135.667969 67.898438 L 135.746094 67.898438 C 136.121094 67.898438 136.269531 67.824219 136.269531 67.746094 C 136.269531 67.671875 136.195312 67.445312 136.046875 67.070312 L 135.746094 66.390625 Z M 133.261719 65.941406 L 135.519531 65.941406 L 134.390625 63.378906 Z M 135.066406 59.988281 L 136.195312 59.988281 L 134.617188 61.269531 L 134.164062 61.269531 Z M 135.066406 59.988281 "/>
<path style=" stroke:none;fill-rule:nonzero;fill:rgb(76.078431%,49.411765%,0%);fill-opacity:1;" d="M 143.269531 68.5 L 139.808594 63.527344 L 139.808594 67.144531 C 139.808594 67.523438 139.808594 67.746094 139.882812 67.824219 C 139.957031 67.898438 140.109375 67.972656 140.410156 67.972656 L 140.484375 67.972656 L 140.484375 68.351562 L 138.527344 68.351562 L 138.527344 67.972656 L 138.605469 67.972656 C 138.90625 67.972656 139.054688 67.898438 139.128906 67.824219 C 139.207031 67.746094 139.207031 67.523438 139.207031 67.144531 L 139.207031 63.152344 C 139.207031 62.773438 139.207031 62.550781 139.128906 62.472656 C 139.054688 62.398438 138.90625 62.324219 138.605469 62.324219 L 138.527344 62.324219 L 138.527344 61.945312 L 140.109375 61.945312 L 143.570312 66.917969 L 143.570312 63.226562 C 143.570312 62.851562 143.570312 62.625 143.496094 62.550781 C 143.417969 62.472656 143.269531 62.398438 142.96875 62.398438 L 142.894531 62.398438 L 142.894531 62.023438 L 144.847656 62.023438 L 144.847656 62.398438 L 144.773438 62.398438 C 144.472656 62.398438 144.324219 62.472656 144.246094 62.550781 C 144.171875 62.625 144.171875 62.851562 144.171875 63.226562 L 144.171875 68.578125 Z M 143.269531 68.5 "/>
</g>
</svg>
